<mxfile host="app.diagrams.net" modified="2023-02-08T07:06:07.733Z" agent="5.0 (Windows NT 10.0; Win64; x64) AppleWebKit/537.36 (KHTML, like Gecko) Chrome/109.0.0.0 Safari/537.36" etag="yGeDxVDNu-ZOYLolAbH8" version="20.8.17" type="github">
  <diagram id="R2lEEEUBdFMjLlhIrx00" name="Page-1">
    <mxGraphModel dx="947" dy="530" grid="0" gridSize="10" guides="0" tooltips="1" connect="1" arrows="1" fold="1" page="1" pageScale="1" pageWidth="2336" pageHeight="1654" math="0" shadow="0" extFonts="Permanent Marker^https://fonts.googleapis.com/css?family=Permanent+Marker">
      <root>
        <mxCell id="0" />
        <mxCell id="1" parent="0" />
        <mxCell id="a-cO9aG_Ena2G8kNyRwP-2" value="Customer" style="html=1;overflow=block;blockSpacing=1;swimlane;childLayout=stackLayout;horizontal=1;horizontalStack=0;resizeParent=1;resizeParentMax=0;resizeLast=0;collapsible=0;fontStyle=0;marginBottom=0;swimlaneFillColor=#ffffff;startSize=NaN;whiteSpace=wrap;fontSize=16.7;fontColor=#3a414a;spacing=0;strokeColor=#3a414a;strokeOpacity=100;rounded=1;absoluteArcSize=1;arcSize=9;strokeWidth=0.8;fillColor=#d9d9d9;" vertex="1" parent="1">
          <mxGeometry x="1881" y="-214" width="153" height="NaN" as="geometry" />
        </mxCell>
        <mxCell id="a-cO9aG_Ena2G8kNyRwP-3" value="Customer_code" style="part=1;resizeHeight=0;strokeColor=none;align=left;verticalAlign=top;spacingLeft=4;spacingRight=4;overflow=hidden;rotatable=0;points=[[0,0.5],[1,0.5]];portConstraint=eastwest;html=1;whiteSpace=wrap;#FFFFFFwhiteSpace=wrap;fontSize=16.7;fontColor=#3a414a;fontStyle=4;fillColor=none;strokeOpacity=100;" vertex="1" parent="a-cO9aG_Ena2G8kNyRwP-2">
          <mxGeometry y="NaN" width="153" as="geometry" />
        </mxCell>
        <mxCell id="a-cO9aG_Ena2G8kNyRwP-4" value="Customer_name" style="part=1;resizeHeight=0;strokeColor=none;align=left;verticalAlign=top;spacingLeft=4;spacingRight=4;overflow=hidden;rotatable=0;points=[[0,0.5],[1,0.5]];portConstraint=eastwest;html=1;whiteSpace=wrap;#FFFFFFwhiteSpace=wrap;fontSize=16.7;fontColor=#3a414a;fillColor=none;strokeOpacity=100;" vertex="1" parent="a-cO9aG_Ena2G8kNyRwP-2">
          <mxGeometry y="NaN" width="153" as="geometry" />
        </mxCell>
        <mxCell id="a-cO9aG_Ena2G8kNyRwP-5" value="Company_name" style="part=1;resizeHeight=0;strokeColor=none;align=left;verticalAlign=top;spacingLeft=4;spacingRight=4;overflow=hidden;rotatable=0;points=[[0,0.5],[1,0.5]];portConstraint=eastwest;html=1;whiteSpace=wrap;#FFFFFFwhiteSpace=wrap;fontSize=16.7;fontColor=#3a414a;fillColor=none;strokeOpacity=100;" vertex="1" parent="a-cO9aG_Ena2G8kNyRwP-2">
          <mxGeometry y="NaN" width="153" as="geometry" />
        </mxCell>
        <mxCell id="a-cO9aG_Ena2G8kNyRwP-6" value="Phone" style="part=1;resizeHeight=0;strokeColor=none;align=left;verticalAlign=top;spacingLeft=4;spacingRight=4;overflow=hidden;rotatable=0;points=[[0,0.5],[1,0.5]];portConstraint=eastwest;html=1;whiteSpace=wrap;#FFFFFFwhiteSpace=wrap;fontSize=16.7;fontColor=#3a414a;fillColor=none;strokeOpacity=100;" vertex="1" parent="a-cO9aG_Ena2G8kNyRwP-2">
          <mxGeometry y="NaN" width="153" as="geometry" />
        </mxCell>
        <mxCell id="a-cO9aG_Ena2G8kNyRwP-7" value="Type" style="part=1;resizeHeight=0;strokeColor=none;align=left;verticalAlign=top;spacingLeft=4;spacingRight=4;overflow=hidden;rotatable=0;points=[[0,0.5],[1,0.5]];portConstraint=eastwest;html=1;whiteSpace=wrap;#FFFFFFwhiteSpace=wrap;fontSize=16.7;fontColor=#3a414a;fillColor=none;strokeOpacity=100;" vertex="1" parent="a-cO9aG_Ena2G8kNyRwP-2">
          <mxGeometry y="NaN" width="153" as="geometry" />
        </mxCell>
        <mxCell id="a-cO9aG_Ena2G8kNyRwP-8" value="Enterprise_Tax_ID" style="part=1;resizeHeight=0;strokeColor=none;align=left;verticalAlign=top;spacingLeft=4;spacingRight=4;overflow=hidden;rotatable=0;points=[[0,0.5],[1,0.5]];portConstraint=eastwest;html=1;whiteSpace=wrap;#FFFFFFwhiteSpace=wrap;fontSize=16.7;fontColor=#3a414a;fillColor=none;strokeOpacity=100;" vertex="1" parent="a-cO9aG_Ena2G8kNyRwP-2">
          <mxGeometry y="NaN" width="153" as="geometry" />
        </mxCell>
        <mxCell id="a-cO9aG_Ena2G8kNyRwP-9" value="Citizen_ID" style="part=1;resizeHeight=0;strokeColor=none;align=left;verticalAlign=top;spacingLeft=4;spacingRight=4;overflow=hidden;rotatable=0;points=[[0,0.5],[1,0.5]];portConstraint=eastwest;html=1;whiteSpace=wrap;#FFFFFFwhiteSpace=wrap;fontSize=16.7;fontColor=#3a414a;fillColor=none;strokeOpacity=100;" vertex="1" parent="a-cO9aG_Ena2G8kNyRwP-2">
          <mxGeometry y="NaN" width="153" as="geometry" />
        </mxCell>
        <mxCell id="a-cO9aG_Ena2G8kNyRwP-10" value="Country" style="part=1;resizeHeight=0;strokeColor=none;align=left;verticalAlign=top;spacingLeft=4;spacingRight=4;overflow=hidden;rotatable=0;points=[[0,0.5],[1,0.5]];portConstraint=eastwest;html=1;whiteSpace=wrap;#FFFFFFwhiteSpace=wrap;fontSize=16.7;fontColor=#3a414a;fillColor=none;strokeOpacity=100;" vertex="1" parent="a-cO9aG_Ena2G8kNyRwP-2">
          <mxGeometry y="NaN" width="153" as="geometry" />
        </mxCell>
        <mxCell id="a-cO9aG_Ena2G8kNyRwP-11" value="City/Province" style="part=1;resizeHeight=0;strokeColor=none;align=left;verticalAlign=top;spacingLeft=4;spacingRight=4;overflow=hidden;rotatable=0;points=[[0,0.5],[1,0.5]];portConstraint=eastwest;html=1;whiteSpace=wrap;#FFFFFFwhiteSpace=wrap;fontSize=16.7;fontColor=#3a414a;fillColor=none;strokeOpacity=100;" vertex="1" parent="a-cO9aG_Ena2G8kNyRwP-2">
          <mxGeometry y="NaN" width="153" as="geometry" />
        </mxCell>
        <mxCell id="a-cO9aG_Ena2G8kNyRwP-12" value="District" style="part=1;resizeHeight=0;strokeColor=none;align=left;verticalAlign=top;spacingLeft=4;spacingRight=4;overflow=hidden;rotatable=0;points=[[0,0.5],[1,0.5]];portConstraint=eastwest;html=1;whiteSpace=wrap;#FFFFFFwhiteSpace=wrap;fontSize=16.7;fontColor=#3a414a;fillColor=none;strokeOpacity=100;" vertex="1" parent="a-cO9aG_Ena2G8kNyRwP-2">
          <mxGeometry y="NaN" width="153" as="geometry" />
        </mxCell>
        <mxCell id="a-cO9aG_Ena2G8kNyRwP-13" value="Ward" style="part=1;resizeHeight=0;strokeColor=none;align=left;verticalAlign=top;spacingLeft=4;spacingRight=4;overflow=hidden;rotatable=0;points=[[0,0.5],[1,0.5]];portConstraint=eastwest;html=1;whiteSpace=wrap;#FFFFFFwhiteSpace=wrap;fontSize=16.7;fontColor=#3a414a;fillColor=none;strokeOpacity=100;" vertex="1" parent="a-cO9aG_Ena2G8kNyRwP-2">
          <mxGeometry y="NaN" width="153" as="geometry" />
        </mxCell>
        <mxCell id="a-cO9aG_Ena2G8kNyRwP-14" value="Street" style="part=1;resizeHeight=0;strokeColor=none;align=left;verticalAlign=top;spacingLeft=4;spacingRight=4;overflow=hidden;rotatable=0;points=[[0,0.5],[1,0.5]];portConstraint=eastwest;html=1;whiteSpace=wrap;#FFFFFFwhiteSpace=wrap;fontSize=16.7;fontColor=#3a414a;fillColor=none;strokeOpacity=100;" vertex="1" parent="a-cO9aG_Ena2G8kNyRwP-2">
          <mxGeometry y="NaN" width="153" as="geometry" />
        </mxCell>
        <mxCell id="a-cO9aG_Ena2G8kNyRwP-15" value="CUSTOMER" style="shape=table;startSize=30;container=1;collapsible=1;childLayout=tableLayout;fixedRows=1;rowLines=0;fontStyle=1;align=center;resizeLast=1;fillColor=#d5e8d4;strokeColor=#82b366;gradientColor=#97d077;labelBackgroundColor=none;rounded=1;swimlaneLine=0;shadow=0;" vertex="1" parent="1">
          <mxGeometry x="1067" y="640" width="266" height="390" as="geometry" />
        </mxCell>
        <mxCell id="a-cO9aG_Ena2G8kNyRwP-16" value="" style="shape=tableRow;horizontal=0;startSize=0;swimlaneHead=0;swimlaneBody=0;fillColor=none;collapsible=0;dropTarget=0;points=[[0,0.5],[1,0.5]];portConstraint=eastwest;top=0;left=0;right=0;bottom=1;" vertex="1" parent="a-cO9aG_Ena2G8kNyRwP-15">
          <mxGeometry y="30" width="266" height="30" as="geometry" />
        </mxCell>
        <mxCell id="a-cO9aG_Ena2G8kNyRwP-17" value="PK" style="shape=partialRectangle;connectable=0;fillColor=none;top=0;left=0;bottom=0;right=0;fontStyle=1;overflow=hidden;" vertex="1" parent="a-cO9aG_Ena2G8kNyRwP-16">
          <mxGeometry width="30" height="30" as="geometry">
            <mxRectangle width="30" height="30" as="alternateBounds" />
          </mxGeometry>
        </mxCell>
        <mxCell id="a-cO9aG_Ena2G8kNyRwP-18" value="Customer_code" style="shape=partialRectangle;connectable=0;fillColor=none;top=0;left=0;bottom=0;right=0;align=left;spacingLeft=6;fontStyle=5;overflow=hidden;" vertex="1" parent="a-cO9aG_Ena2G8kNyRwP-16">
          <mxGeometry x="30" width="236" height="30" as="geometry">
            <mxRectangle width="236" height="30" as="alternateBounds" />
          </mxGeometry>
        </mxCell>
        <mxCell id="a-cO9aG_Ena2G8kNyRwP-19" value="" style="shape=tableRow;horizontal=0;startSize=0;swimlaneHead=0;swimlaneBody=0;fillColor=none;collapsible=0;dropTarget=0;points=[[0,0.5],[1,0.5]];portConstraint=eastwest;top=0;left=0;right=0;bottom=0;" vertex="1" parent="a-cO9aG_Ena2G8kNyRwP-15">
          <mxGeometry y="60" width="266" height="30" as="geometry" />
        </mxCell>
        <mxCell id="a-cO9aG_Ena2G8kNyRwP-20" value="" style="shape=partialRectangle;connectable=0;fillColor=none;top=0;left=0;bottom=0;right=0;editable=1;overflow=hidden;" vertex="1" parent="a-cO9aG_Ena2G8kNyRwP-19">
          <mxGeometry width="30" height="30" as="geometry">
            <mxRectangle width="30" height="30" as="alternateBounds" />
          </mxGeometry>
        </mxCell>
        <mxCell id="a-cO9aG_Ena2G8kNyRwP-21" value="Customer_name" style="shape=partialRectangle;connectable=0;fillColor=none;top=0;left=0;bottom=0;right=0;align=left;spacingLeft=6;overflow=hidden;" vertex="1" parent="a-cO9aG_Ena2G8kNyRwP-19">
          <mxGeometry x="30" width="236" height="30" as="geometry">
            <mxRectangle width="236" height="30" as="alternateBounds" />
          </mxGeometry>
        </mxCell>
        <mxCell id="a-cO9aG_Ena2G8kNyRwP-22" value="" style="shape=tableRow;horizontal=0;startSize=0;swimlaneHead=0;swimlaneBody=0;fillColor=none;collapsible=0;dropTarget=0;points=[[0,0.5],[1,0.5]];portConstraint=eastwest;top=0;left=0;right=0;bottom=0;" vertex="1" parent="a-cO9aG_Ena2G8kNyRwP-15">
          <mxGeometry y="90" width="266" height="30" as="geometry" />
        </mxCell>
        <mxCell id="a-cO9aG_Ena2G8kNyRwP-23" value="" style="shape=partialRectangle;connectable=0;fillColor=none;top=0;left=0;bottom=0;right=0;editable=1;overflow=hidden;" vertex="1" parent="a-cO9aG_Ena2G8kNyRwP-22">
          <mxGeometry width="30" height="30" as="geometry">
            <mxRectangle width="30" height="30" as="alternateBounds" />
          </mxGeometry>
        </mxCell>
        <mxCell id="a-cO9aG_Ena2G8kNyRwP-24" value="Company_name" style="shape=partialRectangle;connectable=0;fillColor=none;top=0;left=0;bottom=0;right=0;align=left;spacingLeft=6;overflow=hidden;" vertex="1" parent="a-cO9aG_Ena2G8kNyRwP-22">
          <mxGeometry x="30" width="236" height="30" as="geometry">
            <mxRectangle width="236" height="30" as="alternateBounds" />
          </mxGeometry>
        </mxCell>
        <mxCell id="a-cO9aG_Ena2G8kNyRwP-25" value="" style="shape=tableRow;horizontal=0;startSize=0;swimlaneHead=0;swimlaneBody=0;fillColor=none;collapsible=0;dropTarget=0;points=[[0,0.5],[1,0.5]];portConstraint=eastwest;top=0;left=0;right=0;bottom=0;" vertex="1" parent="a-cO9aG_Ena2G8kNyRwP-15">
          <mxGeometry y="120" width="266" height="30" as="geometry" />
        </mxCell>
        <mxCell id="a-cO9aG_Ena2G8kNyRwP-26" value="" style="shape=partialRectangle;connectable=0;fillColor=none;top=0;left=0;bottom=0;right=0;editable=1;overflow=hidden;" vertex="1" parent="a-cO9aG_Ena2G8kNyRwP-25">
          <mxGeometry width="30" height="30" as="geometry">
            <mxRectangle width="30" height="30" as="alternateBounds" />
          </mxGeometry>
        </mxCell>
        <mxCell id="a-cO9aG_Ena2G8kNyRwP-27" value="Phone" style="shape=partialRectangle;connectable=0;fillColor=none;top=0;left=0;bottom=0;right=0;align=left;spacingLeft=6;overflow=hidden;" vertex="1" parent="a-cO9aG_Ena2G8kNyRwP-25">
          <mxGeometry x="30" width="236" height="30" as="geometry">
            <mxRectangle width="236" height="30" as="alternateBounds" />
          </mxGeometry>
        </mxCell>
        <mxCell id="a-cO9aG_Ena2G8kNyRwP-42" value="" style="shape=tableRow;horizontal=0;startSize=0;swimlaneHead=0;swimlaneBody=0;fillColor=none;collapsible=0;dropTarget=0;points=[[0,0.5],[1,0.5]];portConstraint=eastwest;top=0;left=0;right=0;bottom=0;" vertex="1" parent="a-cO9aG_Ena2G8kNyRwP-15">
          <mxGeometry y="150" width="266" height="30" as="geometry" />
        </mxCell>
        <mxCell id="a-cO9aG_Ena2G8kNyRwP-43" value="" style="shape=partialRectangle;connectable=0;fillColor=none;top=0;left=0;bottom=0;right=0;editable=1;overflow=hidden;" vertex="1" parent="a-cO9aG_Ena2G8kNyRwP-42">
          <mxGeometry width="30" height="30" as="geometry">
            <mxRectangle width="30" height="30" as="alternateBounds" />
          </mxGeometry>
        </mxCell>
        <mxCell id="a-cO9aG_Ena2G8kNyRwP-44" value="Type" style="shape=partialRectangle;connectable=0;fillColor=none;top=0;left=0;bottom=0;right=0;align=left;spacingLeft=6;overflow=hidden;" vertex="1" parent="a-cO9aG_Ena2G8kNyRwP-42">
          <mxGeometry x="30" width="236" height="30" as="geometry">
            <mxRectangle width="236" height="30" as="alternateBounds" />
          </mxGeometry>
        </mxCell>
        <mxCell id="a-cO9aG_Ena2G8kNyRwP-45" value="" style="shape=tableRow;horizontal=0;startSize=0;swimlaneHead=0;swimlaneBody=0;fillColor=none;collapsible=0;dropTarget=0;points=[[0,0.5],[1,0.5]];portConstraint=eastwest;top=0;left=0;right=0;bottom=0;" vertex="1" parent="a-cO9aG_Ena2G8kNyRwP-15">
          <mxGeometry y="180" width="266" height="30" as="geometry" />
        </mxCell>
        <mxCell id="a-cO9aG_Ena2G8kNyRwP-46" value="" style="shape=partialRectangle;connectable=0;fillColor=none;top=0;left=0;bottom=0;right=0;editable=1;overflow=hidden;" vertex="1" parent="a-cO9aG_Ena2G8kNyRwP-45">
          <mxGeometry width="30" height="30" as="geometry">
            <mxRectangle width="30" height="30" as="alternateBounds" />
          </mxGeometry>
        </mxCell>
        <mxCell id="a-cO9aG_Ena2G8kNyRwP-47" value="Enterprise_tax_ID" style="shape=partialRectangle;connectable=0;fillColor=none;top=0;left=0;bottom=0;right=0;align=left;spacingLeft=6;overflow=hidden;" vertex="1" parent="a-cO9aG_Ena2G8kNyRwP-45">
          <mxGeometry x="30" width="236" height="30" as="geometry">
            <mxRectangle width="236" height="30" as="alternateBounds" />
          </mxGeometry>
        </mxCell>
        <mxCell id="a-cO9aG_Ena2G8kNyRwP-48" value="" style="shape=tableRow;horizontal=0;startSize=0;swimlaneHead=0;swimlaneBody=0;fillColor=none;collapsible=0;dropTarget=0;points=[[0,0.5],[1,0.5]];portConstraint=eastwest;top=0;left=0;right=0;bottom=0;" vertex="1" parent="a-cO9aG_Ena2G8kNyRwP-15">
          <mxGeometry y="210" width="266" height="30" as="geometry" />
        </mxCell>
        <mxCell id="a-cO9aG_Ena2G8kNyRwP-49" value="" style="shape=partialRectangle;connectable=0;fillColor=none;top=0;left=0;bottom=0;right=0;editable=1;overflow=hidden;" vertex="1" parent="a-cO9aG_Ena2G8kNyRwP-48">
          <mxGeometry width="30" height="30" as="geometry">
            <mxRectangle width="30" height="30" as="alternateBounds" />
          </mxGeometry>
        </mxCell>
        <mxCell id="a-cO9aG_Ena2G8kNyRwP-50" value="Citizen_ID" style="shape=partialRectangle;connectable=0;fillColor=none;top=0;left=0;bottom=0;right=0;align=left;spacingLeft=6;overflow=hidden;" vertex="1" parent="a-cO9aG_Ena2G8kNyRwP-48">
          <mxGeometry x="30" width="236" height="30" as="geometry">
            <mxRectangle width="236" height="30" as="alternateBounds" />
          </mxGeometry>
        </mxCell>
        <mxCell id="a-cO9aG_Ena2G8kNyRwP-51" value="" style="shape=tableRow;horizontal=0;startSize=0;swimlaneHead=0;swimlaneBody=0;fillColor=none;collapsible=0;dropTarget=0;points=[[0,0.5],[1,0.5]];portConstraint=eastwest;top=0;left=0;right=0;bottom=0;" vertex="1" parent="a-cO9aG_Ena2G8kNyRwP-15">
          <mxGeometry y="240" width="266" height="30" as="geometry" />
        </mxCell>
        <mxCell id="a-cO9aG_Ena2G8kNyRwP-52" value="" style="shape=partialRectangle;connectable=0;fillColor=none;top=0;left=0;bottom=0;right=0;editable=1;overflow=hidden;" vertex="1" parent="a-cO9aG_Ena2G8kNyRwP-51">
          <mxGeometry width="30" height="30" as="geometry">
            <mxRectangle width="30" height="30" as="alternateBounds" />
          </mxGeometry>
        </mxCell>
        <mxCell id="a-cO9aG_Ena2G8kNyRwP-53" value="Country" style="shape=partialRectangle;connectable=0;fillColor=none;top=0;left=0;bottom=0;right=0;align=left;spacingLeft=6;overflow=hidden;" vertex="1" parent="a-cO9aG_Ena2G8kNyRwP-51">
          <mxGeometry x="30" width="236" height="30" as="geometry">
            <mxRectangle width="236" height="30" as="alternateBounds" />
          </mxGeometry>
        </mxCell>
        <mxCell id="a-cO9aG_Ena2G8kNyRwP-54" value="" style="shape=tableRow;horizontal=0;startSize=0;swimlaneHead=0;swimlaneBody=0;fillColor=none;collapsible=0;dropTarget=0;points=[[0,0.5],[1,0.5]];portConstraint=eastwest;top=0;left=0;right=0;bottom=0;" vertex="1" parent="a-cO9aG_Ena2G8kNyRwP-15">
          <mxGeometry y="270" width="266" height="30" as="geometry" />
        </mxCell>
        <mxCell id="a-cO9aG_Ena2G8kNyRwP-55" value="" style="shape=partialRectangle;connectable=0;fillColor=none;top=0;left=0;bottom=0;right=0;editable=1;overflow=hidden;" vertex="1" parent="a-cO9aG_Ena2G8kNyRwP-54">
          <mxGeometry width="30" height="30" as="geometry">
            <mxRectangle width="30" height="30" as="alternateBounds" />
          </mxGeometry>
        </mxCell>
        <mxCell id="a-cO9aG_Ena2G8kNyRwP-56" value="City/Province" style="shape=partialRectangle;connectable=0;fillColor=none;top=0;left=0;bottom=0;right=0;align=left;spacingLeft=6;overflow=hidden;" vertex="1" parent="a-cO9aG_Ena2G8kNyRwP-54">
          <mxGeometry x="30" width="236" height="30" as="geometry">
            <mxRectangle width="236" height="30" as="alternateBounds" />
          </mxGeometry>
        </mxCell>
        <mxCell id="a-cO9aG_Ena2G8kNyRwP-57" value="" style="shape=tableRow;horizontal=0;startSize=0;swimlaneHead=0;swimlaneBody=0;fillColor=none;collapsible=0;dropTarget=0;points=[[0,0.5],[1,0.5]];portConstraint=eastwest;top=0;left=0;right=0;bottom=0;" vertex="1" parent="a-cO9aG_Ena2G8kNyRwP-15">
          <mxGeometry y="300" width="266" height="30" as="geometry" />
        </mxCell>
        <mxCell id="a-cO9aG_Ena2G8kNyRwP-58" value="" style="shape=partialRectangle;connectable=0;fillColor=none;top=0;left=0;bottom=0;right=0;editable=1;overflow=hidden;" vertex="1" parent="a-cO9aG_Ena2G8kNyRwP-57">
          <mxGeometry width="30" height="30" as="geometry">
            <mxRectangle width="30" height="30" as="alternateBounds" />
          </mxGeometry>
        </mxCell>
        <mxCell id="a-cO9aG_Ena2G8kNyRwP-59" value="District" style="shape=partialRectangle;connectable=0;fillColor=none;top=0;left=0;bottom=0;right=0;align=left;spacingLeft=6;overflow=hidden;" vertex="1" parent="a-cO9aG_Ena2G8kNyRwP-57">
          <mxGeometry x="30" width="236" height="30" as="geometry">
            <mxRectangle width="236" height="30" as="alternateBounds" />
          </mxGeometry>
        </mxCell>
        <mxCell id="a-cO9aG_Ena2G8kNyRwP-60" value="" style="shape=tableRow;horizontal=0;startSize=0;swimlaneHead=0;swimlaneBody=0;fillColor=none;collapsible=0;dropTarget=0;points=[[0,0.5],[1,0.5]];portConstraint=eastwest;top=0;left=0;right=0;bottom=0;" vertex="1" parent="a-cO9aG_Ena2G8kNyRwP-15">
          <mxGeometry y="330" width="266" height="30" as="geometry" />
        </mxCell>
        <mxCell id="a-cO9aG_Ena2G8kNyRwP-61" value="" style="shape=partialRectangle;connectable=0;fillColor=none;top=0;left=0;bottom=0;right=0;editable=1;overflow=hidden;" vertex="1" parent="a-cO9aG_Ena2G8kNyRwP-60">
          <mxGeometry width="30" height="30" as="geometry">
            <mxRectangle width="30" height="30" as="alternateBounds" />
          </mxGeometry>
        </mxCell>
        <mxCell id="a-cO9aG_Ena2G8kNyRwP-62" value="Ward" style="shape=partialRectangle;connectable=0;fillColor=none;top=0;left=0;bottom=0;right=0;align=left;spacingLeft=6;overflow=hidden;" vertex="1" parent="a-cO9aG_Ena2G8kNyRwP-60">
          <mxGeometry x="30" width="236" height="30" as="geometry">
            <mxRectangle width="236" height="30" as="alternateBounds" />
          </mxGeometry>
        </mxCell>
        <mxCell id="a-cO9aG_Ena2G8kNyRwP-63" value="" style="shape=tableRow;horizontal=0;startSize=0;swimlaneHead=0;swimlaneBody=0;fillColor=none;collapsible=0;dropTarget=0;points=[[0,0.5],[1,0.5]];portConstraint=eastwest;top=0;left=0;right=0;bottom=0;" vertex="1" parent="a-cO9aG_Ena2G8kNyRwP-15">
          <mxGeometry y="360" width="266" height="30" as="geometry" />
        </mxCell>
        <mxCell id="a-cO9aG_Ena2G8kNyRwP-64" value="" style="shape=partialRectangle;connectable=0;fillColor=none;top=0;left=0;bottom=0;right=0;editable=1;overflow=hidden;" vertex="1" parent="a-cO9aG_Ena2G8kNyRwP-63">
          <mxGeometry width="30" height="30" as="geometry">
            <mxRectangle width="30" height="30" as="alternateBounds" />
          </mxGeometry>
        </mxCell>
        <mxCell id="a-cO9aG_Ena2G8kNyRwP-65" value="Street" style="shape=partialRectangle;connectable=0;fillColor=none;top=0;left=0;bottom=0;right=0;align=left;spacingLeft=6;overflow=hidden;" vertex="1" parent="a-cO9aG_Ena2G8kNyRwP-63">
          <mxGeometry x="30" width="236" height="30" as="geometry">
            <mxRectangle width="236" height="30" as="alternateBounds" />
          </mxGeometry>
        </mxCell>
        <mxCell id="a-cO9aG_Ena2G8kNyRwP-28" value="Table" style="shape=table;startSize=30;container=1;collapsible=1;childLayout=tableLayout;fixedRows=1;rowLines=0;fontStyle=1;align=center;resizeLast=1;labelBackgroundColor=none;strokeColor=#82b366;fontFamily=Helvetica;fontSize=12;fontColor=default;fillColor=#d5e8d4;gradientColor=#97d077;" vertex="1" parent="1">
          <mxGeometry x="570" y="80" width="180" height="150" as="geometry" />
        </mxCell>
        <mxCell id="a-cO9aG_Ena2G8kNyRwP-29" value="" style="shape=tableRow;horizontal=0;startSize=0;swimlaneHead=0;swimlaneBody=0;fillColor=none;collapsible=0;dropTarget=0;points=[[0,0.5],[1,0.5]];portConstraint=eastwest;top=0;left=0;right=0;bottom=1;labelBackgroundColor=none;strokeColor=#82b366;fontFamily=Helvetica;fontSize=12;fontColor=default;" vertex="1" parent="a-cO9aG_Ena2G8kNyRwP-28">
          <mxGeometry y="30" width="180" height="30" as="geometry" />
        </mxCell>
        <mxCell id="a-cO9aG_Ena2G8kNyRwP-30" value="PK" style="shape=partialRectangle;connectable=0;fillColor=none;top=0;left=0;bottom=0;right=0;fontStyle=1;overflow=hidden;labelBackgroundColor=none;strokeColor=#82b366;fontFamily=Helvetica;fontSize=12;fontColor=default;startSize=30;" vertex="1" parent="a-cO9aG_Ena2G8kNyRwP-29">
          <mxGeometry width="30" height="30" as="geometry">
            <mxRectangle width="30" height="30" as="alternateBounds" />
          </mxGeometry>
        </mxCell>
        <mxCell id="a-cO9aG_Ena2G8kNyRwP-31" value="UniqueID" style="shape=partialRectangle;connectable=0;fillColor=none;top=0;left=0;bottom=0;right=0;align=left;spacingLeft=6;fontStyle=5;overflow=hidden;labelBackgroundColor=none;strokeColor=#82b366;fontFamily=Helvetica;fontSize=12;fontColor=default;startSize=30;" vertex="1" parent="a-cO9aG_Ena2G8kNyRwP-29">
          <mxGeometry x="30" width="150" height="30" as="geometry">
            <mxRectangle width="150" height="30" as="alternateBounds" />
          </mxGeometry>
        </mxCell>
        <mxCell id="a-cO9aG_Ena2G8kNyRwP-32" value="" style="shape=tableRow;horizontal=0;startSize=0;swimlaneHead=0;swimlaneBody=0;fillColor=none;collapsible=0;dropTarget=0;points=[[0,0.5],[1,0.5]];portConstraint=eastwest;top=0;left=0;right=0;bottom=0;labelBackgroundColor=none;strokeColor=#82b366;fontFamily=Helvetica;fontSize=12;fontColor=default;" vertex="1" parent="a-cO9aG_Ena2G8kNyRwP-28">
          <mxGeometry y="60" width="180" height="30" as="geometry" />
        </mxCell>
        <mxCell id="a-cO9aG_Ena2G8kNyRwP-33" value="" style="shape=partialRectangle;connectable=0;fillColor=none;top=0;left=0;bottom=0;right=0;editable=1;overflow=hidden;labelBackgroundColor=none;strokeColor=#82b366;fontFamily=Helvetica;fontSize=12;fontColor=default;startSize=30;" vertex="1" parent="a-cO9aG_Ena2G8kNyRwP-32">
          <mxGeometry width="30" height="30" as="geometry">
            <mxRectangle width="30" height="30" as="alternateBounds" />
          </mxGeometry>
        </mxCell>
        <mxCell id="a-cO9aG_Ena2G8kNyRwP-34" value="Row 1" style="shape=partialRectangle;connectable=0;fillColor=none;top=0;left=0;bottom=0;right=0;align=left;spacingLeft=6;overflow=hidden;labelBackgroundColor=none;strokeColor=#82b366;fontFamily=Helvetica;fontSize=12;fontColor=default;startSize=30;" vertex="1" parent="a-cO9aG_Ena2G8kNyRwP-32">
          <mxGeometry x="30" width="150" height="30" as="geometry">
            <mxRectangle width="150" height="30" as="alternateBounds" />
          </mxGeometry>
        </mxCell>
        <mxCell id="a-cO9aG_Ena2G8kNyRwP-35" value="" style="shape=tableRow;horizontal=0;startSize=0;swimlaneHead=0;swimlaneBody=0;fillColor=none;collapsible=0;dropTarget=0;points=[[0,0.5],[1,0.5]];portConstraint=eastwest;top=0;left=0;right=0;bottom=0;labelBackgroundColor=none;strokeColor=#82b366;fontFamily=Helvetica;fontSize=12;fontColor=default;" vertex="1" parent="a-cO9aG_Ena2G8kNyRwP-28">
          <mxGeometry y="90" width="180" height="30" as="geometry" />
        </mxCell>
        <mxCell id="a-cO9aG_Ena2G8kNyRwP-36" value="" style="shape=partialRectangle;connectable=0;fillColor=none;top=0;left=0;bottom=0;right=0;editable=1;overflow=hidden;labelBackgroundColor=none;strokeColor=#82b366;fontFamily=Helvetica;fontSize=12;fontColor=default;startSize=30;" vertex="1" parent="a-cO9aG_Ena2G8kNyRwP-35">
          <mxGeometry width="30" height="30" as="geometry">
            <mxRectangle width="30" height="30" as="alternateBounds" />
          </mxGeometry>
        </mxCell>
        <mxCell id="a-cO9aG_Ena2G8kNyRwP-37" value="Row 2" style="shape=partialRectangle;connectable=0;fillColor=none;top=0;left=0;bottom=0;right=0;align=left;spacingLeft=6;overflow=hidden;labelBackgroundColor=none;strokeColor=#82b366;fontFamily=Helvetica;fontSize=12;fontColor=default;startSize=30;" vertex="1" parent="a-cO9aG_Ena2G8kNyRwP-35">
          <mxGeometry x="30" width="150" height="30" as="geometry">
            <mxRectangle width="150" height="30" as="alternateBounds" />
          </mxGeometry>
        </mxCell>
        <mxCell id="a-cO9aG_Ena2G8kNyRwP-38" value="" style="shape=tableRow;horizontal=0;startSize=0;swimlaneHead=0;swimlaneBody=0;fillColor=none;collapsible=0;dropTarget=0;points=[[0,0.5],[1,0.5]];portConstraint=eastwest;top=0;left=0;right=0;bottom=0;labelBackgroundColor=none;strokeColor=#82b366;fontFamily=Helvetica;fontSize=12;fontColor=default;" vertex="1" parent="a-cO9aG_Ena2G8kNyRwP-28">
          <mxGeometry y="120" width="180" height="30" as="geometry" />
        </mxCell>
        <mxCell id="a-cO9aG_Ena2G8kNyRwP-39" value="" style="shape=partialRectangle;connectable=0;fillColor=none;top=0;left=0;bottom=0;right=0;editable=1;overflow=hidden;labelBackgroundColor=none;strokeColor=#82b366;fontFamily=Helvetica;fontSize=12;fontColor=default;startSize=30;" vertex="1" parent="a-cO9aG_Ena2G8kNyRwP-38">
          <mxGeometry width="30" height="30" as="geometry">
            <mxRectangle width="30" height="30" as="alternateBounds" />
          </mxGeometry>
        </mxCell>
        <mxCell id="a-cO9aG_Ena2G8kNyRwP-40" value="Row 3" style="shape=partialRectangle;connectable=0;fillColor=none;top=0;left=0;bottom=0;right=0;align=left;spacingLeft=6;overflow=hidden;labelBackgroundColor=none;strokeColor=#82b366;fontFamily=Helvetica;fontSize=12;fontColor=default;startSize=30;" vertex="1" parent="a-cO9aG_Ena2G8kNyRwP-38">
          <mxGeometry x="30" width="150" height="30" as="geometry">
            <mxRectangle width="150" height="30" as="alternateBounds" />
          </mxGeometry>
        </mxCell>
        <mxCell id="a-cO9aG_Ena2G8kNyRwP-96" value="NVARCHAR(50)" style="shape=partialRectangle;fillColor=none;align=left;verticalAlign=middle;strokeColor=none;spacingLeft=34;rotatable=1;points=[[0,0.5],[1,0.5]];portConstraint=eastwest;dropTarget=0;rounded=1;shadow=0;labelBackgroundColor=none;fontFamily=Helvetica;fontSize=12;fontColor=default;startSize=30;movable=1;resizable=1;deletable=1;editable=1;locked=0;connectable=1;" vertex="1" parent="1">
          <mxGeometry x="1191" y="701" width="90" height="30" as="geometry" />
        </mxCell>
        <mxCell id="a-cO9aG_Ena2G8kNyRwP-97" value="" style="shape=partialRectangle;top=0;left=0;bottom=0;fillColor=none;stokeWidth=1;dashed=1;align=left;verticalAlign=middle;spacingLeft=4;spacingRight=4;overflow=hidden;rotatable=0;points=[];portConstraint=eastwest;part=1;rounded=1;shadow=0;labelBackgroundColor=none;strokeColor=#82b366;fontFamily=Helvetica;fontSize=12;fontColor=default;startSize=30;" vertex="1" connectable="0" parent="a-cO9aG_Ena2G8kNyRwP-96">
          <mxGeometry width="30" height="30" as="geometry" />
        </mxCell>
        <mxCell id="a-cO9aG_Ena2G8kNyRwP-98" value="NVARCHAR(50)" style="shape=partialRectangle;fillColor=none;align=left;verticalAlign=middle;strokeColor=none;spacingLeft=34;rotatable=1;points=[[0,0.5],[1,0.5]];portConstraint=eastwest;dropTarget=0;rounded=1;shadow=0;labelBackgroundColor=none;fontFamily=Helvetica;fontSize=12;fontColor=default;startSize=30;movable=1;resizable=1;deletable=1;editable=1;locked=0;connectable=1;" vertex="1" parent="1">
          <mxGeometry x="1191" y="730" width="90" height="30" as="geometry" />
        </mxCell>
        <mxCell id="a-cO9aG_Ena2G8kNyRwP-99" value="" style="shape=partialRectangle;top=0;left=0;bottom=0;fillColor=none;stokeWidth=1;dashed=1;align=left;verticalAlign=middle;spacingLeft=4;spacingRight=4;overflow=hidden;rotatable=0;points=[];portConstraint=eastwest;part=1;rounded=1;shadow=0;labelBackgroundColor=none;strokeColor=#82b366;fontFamily=Helvetica;fontSize=12;fontColor=default;startSize=30;" vertex="1" connectable="0" parent="a-cO9aG_Ena2G8kNyRwP-98">
          <mxGeometry width="30" height="30" as="geometry" />
        </mxCell>
        <mxCell id="a-cO9aG_Ena2G8kNyRwP-100" value="NVARCHAR(50)" style="shape=partialRectangle;fillColor=none;align=left;verticalAlign=middle;strokeColor=none;spacingLeft=34;rotatable=1;points=[[0,0.5],[1,0.5]];portConstraint=eastwest;dropTarget=0;rounded=1;shadow=0;labelBackgroundColor=none;fontFamily=Helvetica;fontSize=12;fontColor=default;startSize=30;movable=1;resizable=1;deletable=1;editable=1;locked=0;connectable=1;" vertex="1" parent="1">
          <mxGeometry x="1191" y="672" width="90" height="30" as="geometry" />
        </mxCell>
        <mxCell id="a-cO9aG_Ena2G8kNyRwP-101" value="" style="shape=partialRectangle;top=0;left=0;bottom=0;fillColor=none;stokeWidth=1;dashed=1;align=left;verticalAlign=middle;spacingLeft=4;spacingRight=4;overflow=hidden;rotatable=0;points=[];portConstraint=eastwest;part=1;rounded=1;shadow=0;labelBackgroundColor=none;strokeColor=#82b366;fontFamily=Helvetica;fontSize=12;fontColor=default;startSize=30;" vertex="1" connectable="0" parent="a-cO9aG_Ena2G8kNyRwP-100">
          <mxGeometry width="30" height="30" as="geometry" />
        </mxCell>
        <mxCell id="a-cO9aG_Ena2G8kNyRwP-102" value="NVARCHAR(50)" style="shape=partialRectangle;fillColor=none;align=left;verticalAlign=middle;strokeColor=none;spacingLeft=34;rotatable=1;points=[[0,0.5],[1,0.5]];portConstraint=eastwest;dropTarget=0;rounded=1;shadow=0;labelBackgroundColor=none;fontFamily=Helvetica;fontSize=12;fontColor=default;startSize=30;movable=1;resizable=1;deletable=1;editable=1;locked=0;connectable=1;" vertex="1" parent="1">
          <mxGeometry x="1191" y="760" width="90" height="30" as="geometry" />
        </mxCell>
        <mxCell id="a-cO9aG_Ena2G8kNyRwP-103" value="" style="shape=partialRectangle;top=0;left=0;bottom=0;fillColor=none;stokeWidth=1;dashed=1;align=left;verticalAlign=middle;spacingLeft=4;spacingRight=4;overflow=hidden;rotatable=0;points=[];portConstraint=eastwest;part=1;rounded=1;shadow=0;labelBackgroundColor=none;strokeColor=#82b366;fontFamily=Helvetica;fontSize=12;fontColor=default;startSize=30;" vertex="1" connectable="0" parent="a-cO9aG_Ena2G8kNyRwP-102">
          <mxGeometry width="30" height="30" as="geometry" />
        </mxCell>
        <mxCell id="a-cO9aG_Ena2G8kNyRwP-104" value="NVARCHAR(50)" style="shape=partialRectangle;fillColor=none;align=left;verticalAlign=middle;strokeColor=none;spacingLeft=34;rotatable=1;points=[[0,0.5],[1,0.5]];portConstraint=eastwest;dropTarget=0;rounded=1;shadow=0;labelBackgroundColor=none;fontFamily=Helvetica;fontSize=12;fontColor=default;startSize=30;movable=1;resizable=1;deletable=1;editable=1;locked=0;connectable=1;" vertex="1" parent="1">
          <mxGeometry x="1191" y="790" width="90" height="30" as="geometry" />
        </mxCell>
        <mxCell id="a-cO9aG_Ena2G8kNyRwP-105" value="" style="shape=partialRectangle;top=0;left=0;bottom=0;fillColor=none;stokeWidth=1;dashed=1;align=left;verticalAlign=middle;spacingLeft=4;spacingRight=4;overflow=hidden;rotatable=0;points=[];portConstraint=eastwest;part=1;rounded=1;shadow=0;labelBackgroundColor=none;strokeColor=#82b366;fontFamily=Helvetica;fontSize=12;fontColor=default;startSize=30;" vertex="1" connectable="0" parent="a-cO9aG_Ena2G8kNyRwP-104">
          <mxGeometry width="30" height="30" as="geometry" />
        </mxCell>
        <mxCell id="a-cO9aG_Ena2G8kNyRwP-106" value="NVARCHAR(50)" style="shape=partialRectangle;fillColor=none;align=left;verticalAlign=middle;strokeColor=none;spacingLeft=34;rotatable=1;points=[[0,0.5],[1,0.5]];portConstraint=eastwest;dropTarget=0;rounded=1;shadow=0;labelBackgroundColor=none;fontFamily=Helvetica;fontSize=12;fontColor=default;startSize=30;movable=1;resizable=1;deletable=1;editable=1;locked=0;connectable=1;" vertex="1" parent="1">
          <mxGeometry x="1191" y="820" width="90" height="30" as="geometry" />
        </mxCell>
        <mxCell id="a-cO9aG_Ena2G8kNyRwP-107" value="" style="shape=partialRectangle;top=0;left=0;bottom=0;fillColor=none;stokeWidth=1;dashed=1;align=left;verticalAlign=middle;spacingLeft=4;spacingRight=4;overflow=hidden;rotatable=0;points=[];portConstraint=eastwest;part=1;rounded=1;shadow=0;labelBackgroundColor=none;strokeColor=#82b366;fontFamily=Helvetica;fontSize=12;fontColor=default;startSize=30;" vertex="1" connectable="0" parent="a-cO9aG_Ena2G8kNyRwP-106">
          <mxGeometry width="30" height="30" as="geometry" />
        </mxCell>
        <mxCell id="a-cO9aG_Ena2G8kNyRwP-108" value="NVARCHAR(50)" style="shape=partialRectangle;fillColor=none;align=left;verticalAlign=middle;strokeColor=none;spacingLeft=34;rotatable=1;points=[[0,0.5],[1,0.5]];portConstraint=eastwest;dropTarget=0;rounded=1;shadow=0;labelBackgroundColor=none;fontFamily=Helvetica;fontSize=12;fontColor=default;startSize=30;movable=1;resizable=1;deletable=1;editable=1;locked=0;connectable=1;" vertex="1" parent="1">
          <mxGeometry x="1191" y="848" width="90" height="30" as="geometry" />
        </mxCell>
        <mxCell id="a-cO9aG_Ena2G8kNyRwP-109" value="" style="shape=partialRectangle;top=0;left=0;bottom=0;fillColor=none;stokeWidth=1;dashed=1;align=left;verticalAlign=middle;spacingLeft=4;spacingRight=4;overflow=hidden;rotatable=0;points=[];portConstraint=eastwest;part=1;rounded=1;shadow=0;labelBackgroundColor=none;strokeColor=#82b366;fontFamily=Helvetica;fontSize=12;fontColor=default;startSize=30;" vertex="1" connectable="0" parent="a-cO9aG_Ena2G8kNyRwP-108">
          <mxGeometry width="30" height="30" as="geometry" />
        </mxCell>
        <mxCell id="a-cO9aG_Ena2G8kNyRwP-110" value="NVARCHAR(50)" style="shape=partialRectangle;fillColor=none;align=left;verticalAlign=middle;strokeColor=none;spacingLeft=34;rotatable=1;points=[[0,0.5],[1,0.5]];portConstraint=eastwest;dropTarget=0;rounded=1;shadow=0;labelBackgroundColor=none;fontFamily=Helvetica;fontSize=12;fontColor=default;startSize=30;movable=1;resizable=1;deletable=1;editable=1;locked=0;connectable=1;" vertex="1" parent="1">
          <mxGeometry x="1191" y="877" width="90" height="30" as="geometry" />
        </mxCell>
        <mxCell id="a-cO9aG_Ena2G8kNyRwP-111" value="" style="shape=partialRectangle;top=0;left=0;bottom=0;fillColor=none;stokeWidth=1;dashed=1;align=left;verticalAlign=middle;spacingLeft=4;spacingRight=4;overflow=hidden;rotatable=0;points=[];portConstraint=eastwest;part=1;rounded=1;shadow=0;labelBackgroundColor=none;strokeColor=#82b366;fontFamily=Helvetica;fontSize=12;fontColor=default;startSize=30;" vertex="1" connectable="0" parent="a-cO9aG_Ena2G8kNyRwP-110">
          <mxGeometry width="30" height="30" as="geometry" />
        </mxCell>
        <mxCell id="a-cO9aG_Ena2G8kNyRwP-112" value="NVARCHAR(50)" style="shape=partialRectangle;fillColor=none;align=left;verticalAlign=middle;strokeColor=none;spacingLeft=34;rotatable=1;points=[[0,0.5],[1,0.5]];portConstraint=eastwest;dropTarget=0;rounded=1;shadow=0;labelBackgroundColor=none;fontFamily=Helvetica;fontSize=12;fontColor=default;startSize=30;movable=1;resizable=1;deletable=1;editable=1;locked=0;connectable=1;" vertex="1" parent="1">
          <mxGeometry x="1191" y="908" width="90" height="30" as="geometry" />
        </mxCell>
        <mxCell id="a-cO9aG_Ena2G8kNyRwP-113" value="" style="shape=partialRectangle;top=0;left=0;bottom=0;fillColor=none;stokeWidth=1;dashed=1;align=left;verticalAlign=middle;spacingLeft=4;spacingRight=4;overflow=hidden;rotatable=0;points=[];portConstraint=eastwest;part=1;rounded=1;shadow=0;labelBackgroundColor=none;strokeColor=#82b366;fontFamily=Helvetica;fontSize=12;fontColor=default;startSize=30;" vertex="1" connectable="0" parent="a-cO9aG_Ena2G8kNyRwP-112">
          <mxGeometry width="30" height="30" as="geometry" />
        </mxCell>
        <mxCell id="a-cO9aG_Ena2G8kNyRwP-114" value="NVARCHAR(50)" style="shape=partialRectangle;fillColor=none;align=left;verticalAlign=middle;strokeColor=none;spacingLeft=34;rotatable=1;points=[[0,0.5],[1,0.5]];portConstraint=eastwest;dropTarget=0;rounded=1;shadow=0;labelBackgroundColor=none;fontFamily=Helvetica;fontSize=12;fontColor=default;startSize=30;movable=1;resizable=1;deletable=1;editable=1;locked=0;connectable=1;" vertex="1" parent="1">
          <mxGeometry x="1191" y="940" width="90" height="30" as="geometry" />
        </mxCell>
        <mxCell id="a-cO9aG_Ena2G8kNyRwP-115" value="" style="shape=partialRectangle;top=0;left=0;bottom=0;fillColor=none;stokeWidth=1;dashed=1;align=left;verticalAlign=middle;spacingLeft=4;spacingRight=4;overflow=hidden;rotatable=0;points=[];portConstraint=eastwest;part=1;rounded=1;shadow=0;labelBackgroundColor=none;strokeColor=#82b366;fontFamily=Helvetica;fontSize=12;fontColor=default;startSize=30;" vertex="1" connectable="0" parent="a-cO9aG_Ena2G8kNyRwP-114">
          <mxGeometry width="30" height="30" as="geometry" />
        </mxCell>
        <mxCell id="a-cO9aG_Ena2G8kNyRwP-116" value="NVARCHAR(50)" style="shape=partialRectangle;fillColor=none;align=left;verticalAlign=middle;strokeColor=none;spacingLeft=34;rotatable=1;points=[[0,0.5],[1,0.5]];portConstraint=eastwest;dropTarget=0;rounded=1;shadow=0;labelBackgroundColor=none;fontFamily=Helvetica;fontSize=12;fontColor=default;startSize=30;movable=1;resizable=1;deletable=1;editable=1;locked=0;connectable=1;" vertex="1" parent="1">
          <mxGeometry x="1191" y="970" width="90" height="30" as="geometry" />
        </mxCell>
        <mxCell id="a-cO9aG_Ena2G8kNyRwP-117" value="" style="shape=partialRectangle;top=0;left=0;bottom=0;fillColor=none;stokeWidth=1;dashed=1;align=left;verticalAlign=middle;spacingLeft=4;spacingRight=4;overflow=hidden;rotatable=0;points=[];portConstraint=eastwest;part=1;rounded=1;shadow=0;labelBackgroundColor=none;strokeColor=#82b366;fontFamily=Helvetica;fontSize=12;fontColor=default;startSize=30;" vertex="1" connectable="0" parent="a-cO9aG_Ena2G8kNyRwP-116">
          <mxGeometry width="30" height="30" as="geometry" />
        </mxCell>
        <mxCell id="a-cO9aG_Ena2G8kNyRwP-118" value="NVARCHAR(50)" style="shape=partialRectangle;fillColor=none;align=left;verticalAlign=middle;strokeColor=none;spacingLeft=34;rotatable=1;points=[[0,0.5],[1,0.5]];portConstraint=eastwest;dropTarget=0;rounded=1;shadow=0;labelBackgroundColor=none;fontFamily=Helvetica;fontSize=12;fontColor=default;startSize=30;movable=1;resizable=1;deletable=1;editable=1;locked=0;connectable=1;" vertex="1" parent="1">
          <mxGeometry x="1191" y="999" width="90" height="30" as="geometry" />
        </mxCell>
        <mxCell id="a-cO9aG_Ena2G8kNyRwP-119" value="" style="shape=partialRectangle;top=0;left=0;bottom=0;fillColor=none;stokeWidth=1;dashed=1;align=left;verticalAlign=middle;spacingLeft=4;spacingRight=4;overflow=hidden;rotatable=0;points=[];portConstraint=eastwest;part=1;rounded=1;shadow=0;labelBackgroundColor=none;strokeColor=#82b366;fontFamily=Helvetica;fontSize=12;fontColor=default;startSize=30;" vertex="1" connectable="0" parent="a-cO9aG_Ena2G8kNyRwP-118">
          <mxGeometry width="30" height="30" as="geometry" />
        </mxCell>
        <mxCell id="a-cO9aG_Ena2G8kNyRwP-120" value="EMPLOYEE" style="shape=table;startSize=30;container=1;collapsible=1;childLayout=tableLayout;fixedRows=1;rowLines=0;fontStyle=1;align=center;resizeLast=1;fillColor=#d5e8d4;strokeColor=#82b366;gradientColor=#97d077;labelBackgroundColor=none;rounded=1;swimlaneLine=0;shadow=0;" vertex="1" parent="1">
          <mxGeometry x="1533" y="646" width="266" height="210" as="geometry" />
        </mxCell>
        <mxCell id="a-cO9aG_Ena2G8kNyRwP-121" value="" style="shape=tableRow;horizontal=0;startSize=0;swimlaneHead=0;swimlaneBody=0;fillColor=none;collapsible=0;dropTarget=0;points=[[0,0.5],[1,0.5]];portConstraint=eastwest;top=0;left=0;right=0;bottom=1;" vertex="1" parent="a-cO9aG_Ena2G8kNyRwP-120">
          <mxGeometry y="30" width="266" height="30" as="geometry" />
        </mxCell>
        <mxCell id="a-cO9aG_Ena2G8kNyRwP-122" value="PK" style="shape=partialRectangle;connectable=0;fillColor=none;top=0;left=0;bottom=0;right=0;fontStyle=1;overflow=hidden;" vertex="1" parent="a-cO9aG_Ena2G8kNyRwP-121">
          <mxGeometry width="30" height="30" as="geometry">
            <mxRectangle width="30" height="30" as="alternateBounds" />
          </mxGeometry>
        </mxCell>
        <mxCell id="a-cO9aG_Ena2G8kNyRwP-123" value="Employee_ID" style="shape=partialRectangle;connectable=0;fillColor=none;top=0;left=0;bottom=0;right=0;align=left;spacingLeft=6;fontStyle=5;overflow=hidden;" vertex="1" parent="a-cO9aG_Ena2G8kNyRwP-121">
          <mxGeometry x="30" width="236" height="30" as="geometry">
            <mxRectangle width="236" height="30" as="alternateBounds" />
          </mxGeometry>
        </mxCell>
        <mxCell id="a-cO9aG_Ena2G8kNyRwP-124" value="" style="shape=tableRow;horizontal=0;startSize=0;swimlaneHead=0;swimlaneBody=0;fillColor=none;collapsible=0;dropTarget=0;points=[[0,0.5],[1,0.5]];portConstraint=eastwest;top=0;left=0;right=0;bottom=0;" vertex="1" parent="a-cO9aG_Ena2G8kNyRwP-120">
          <mxGeometry y="60" width="266" height="30" as="geometry" />
        </mxCell>
        <mxCell id="a-cO9aG_Ena2G8kNyRwP-125" value="" style="shape=partialRectangle;connectable=0;fillColor=none;top=0;left=0;bottom=0;right=0;editable=1;overflow=hidden;" vertex="1" parent="a-cO9aG_Ena2G8kNyRwP-124">
          <mxGeometry width="30" height="30" as="geometry">
            <mxRectangle width="30" height="30" as="alternateBounds" />
          </mxGeometry>
        </mxCell>
        <mxCell id="a-cO9aG_Ena2G8kNyRwP-126" value="Employee_name" style="shape=partialRectangle;connectable=0;fillColor=none;top=0;left=0;bottom=0;right=0;align=left;spacingLeft=6;overflow=hidden;" vertex="1" parent="a-cO9aG_Ena2G8kNyRwP-124">
          <mxGeometry x="30" width="236" height="30" as="geometry">
            <mxRectangle width="236" height="30" as="alternateBounds" />
          </mxGeometry>
        </mxCell>
        <mxCell id="a-cO9aG_Ena2G8kNyRwP-127" value="" style="shape=tableRow;horizontal=0;startSize=0;swimlaneHead=0;swimlaneBody=0;fillColor=none;collapsible=0;dropTarget=0;points=[[0,0.5],[1,0.5]];portConstraint=eastwest;top=0;left=0;right=0;bottom=0;" vertex="1" parent="a-cO9aG_Ena2G8kNyRwP-120">
          <mxGeometry y="90" width="266" height="30" as="geometry" />
        </mxCell>
        <mxCell id="a-cO9aG_Ena2G8kNyRwP-128" value="" style="shape=partialRectangle;connectable=0;fillColor=none;top=0;left=0;bottom=0;right=0;editable=1;overflow=hidden;" vertex="1" parent="a-cO9aG_Ena2G8kNyRwP-127">
          <mxGeometry width="30" height="30" as="geometry">
            <mxRectangle width="30" height="30" as="alternateBounds" />
          </mxGeometry>
        </mxCell>
        <mxCell id="a-cO9aG_Ena2G8kNyRwP-129" value="Manager_ID" style="shape=partialRectangle;connectable=0;fillColor=none;top=0;left=0;bottom=0;right=0;align=left;spacingLeft=6;overflow=hidden;" vertex="1" parent="a-cO9aG_Ena2G8kNyRwP-127">
          <mxGeometry x="30" width="236" height="30" as="geometry">
            <mxRectangle width="236" height="30" as="alternateBounds" />
          </mxGeometry>
        </mxCell>
        <mxCell id="a-cO9aG_Ena2G8kNyRwP-130" value="" style="shape=tableRow;horizontal=0;startSize=0;swimlaneHead=0;swimlaneBody=0;fillColor=none;collapsible=0;dropTarget=0;points=[[0,0.5],[1,0.5]];portConstraint=eastwest;top=0;left=0;right=0;bottom=0;" vertex="1" parent="a-cO9aG_Ena2G8kNyRwP-120">
          <mxGeometry y="120" width="266" height="30" as="geometry" />
        </mxCell>
        <mxCell id="a-cO9aG_Ena2G8kNyRwP-131" value="" style="shape=partialRectangle;connectable=0;fillColor=none;top=0;left=0;bottom=0;right=0;editable=1;overflow=hidden;" vertex="1" parent="a-cO9aG_Ena2G8kNyRwP-130">
          <mxGeometry width="30" height="30" as="geometry">
            <mxRectangle width="30" height="30" as="alternateBounds" />
          </mxGeometry>
        </mxCell>
        <mxCell id="a-cO9aG_Ena2G8kNyRwP-132" value="Department_ID" style="shape=partialRectangle;connectable=0;fillColor=none;top=0;left=0;bottom=0;right=0;align=left;spacingLeft=6;overflow=hidden;" vertex="1" parent="a-cO9aG_Ena2G8kNyRwP-130">
          <mxGeometry x="30" width="236" height="30" as="geometry">
            <mxRectangle width="236" height="30" as="alternateBounds" />
          </mxGeometry>
        </mxCell>
        <mxCell id="a-cO9aG_Ena2G8kNyRwP-133" value="" style="shape=tableRow;horizontal=0;startSize=0;swimlaneHead=0;swimlaneBody=0;fillColor=none;collapsible=0;dropTarget=0;points=[[0,0.5],[1,0.5]];portConstraint=eastwest;top=0;left=0;right=0;bottom=0;" vertex="1" parent="a-cO9aG_Ena2G8kNyRwP-120">
          <mxGeometry y="150" width="266" height="30" as="geometry" />
        </mxCell>
        <mxCell id="a-cO9aG_Ena2G8kNyRwP-134" value="" style="shape=partialRectangle;connectable=0;fillColor=none;top=0;left=0;bottom=0;right=0;editable=1;overflow=hidden;" vertex="1" parent="a-cO9aG_Ena2G8kNyRwP-133">
          <mxGeometry width="30" height="30" as="geometry">
            <mxRectangle width="30" height="30" as="alternateBounds" />
          </mxGeometry>
        </mxCell>
        <mxCell id="a-cO9aG_Ena2G8kNyRwP-135" value="Phone" style="shape=partialRectangle;connectable=0;fillColor=none;top=0;left=0;bottom=0;right=0;align=left;spacingLeft=6;overflow=hidden;" vertex="1" parent="a-cO9aG_Ena2G8kNyRwP-133">
          <mxGeometry x="30" width="236" height="30" as="geometry">
            <mxRectangle width="236" height="30" as="alternateBounds" />
          </mxGeometry>
        </mxCell>
        <mxCell id="a-cO9aG_Ena2G8kNyRwP-136" value="" style="shape=tableRow;horizontal=0;startSize=0;swimlaneHead=0;swimlaneBody=0;fillColor=none;collapsible=0;dropTarget=0;points=[[0,0.5],[1,0.5]];portConstraint=eastwest;top=0;left=0;right=0;bottom=0;" vertex="1" parent="a-cO9aG_Ena2G8kNyRwP-120">
          <mxGeometry y="180" width="266" height="30" as="geometry" />
        </mxCell>
        <mxCell id="a-cO9aG_Ena2G8kNyRwP-137" value="" style="shape=partialRectangle;connectable=0;fillColor=none;top=0;left=0;bottom=0;right=0;editable=1;overflow=hidden;" vertex="1" parent="a-cO9aG_Ena2G8kNyRwP-136">
          <mxGeometry width="30" height="30" as="geometry">
            <mxRectangle width="30" height="30" as="alternateBounds" />
          </mxGeometry>
        </mxCell>
        <mxCell id="a-cO9aG_Ena2G8kNyRwP-138" value="Email" style="shape=partialRectangle;connectable=0;fillColor=none;top=0;left=0;bottom=0;right=0;align=left;spacingLeft=6;overflow=hidden;" vertex="1" parent="a-cO9aG_Ena2G8kNyRwP-136">
          <mxGeometry x="30" width="236" height="30" as="geometry">
            <mxRectangle width="236" height="30" as="alternateBounds" />
          </mxGeometry>
        </mxCell>
        <mxCell id="a-cO9aG_Ena2G8kNyRwP-157" value="NVARCHAR(50)" style="shape=partialRectangle;fillColor=none;align=left;verticalAlign=middle;strokeColor=none;spacingLeft=34;rotatable=1;points=[[0,0.5],[1,0.5]];portConstraint=eastwest;dropTarget=0;rounded=1;shadow=0;labelBackgroundColor=none;fontFamily=Helvetica;fontSize=12;fontColor=default;startSize=30;movable=1;resizable=1;deletable=1;editable=1;locked=0;connectable=1;" vertex="1" parent="1">
          <mxGeometry x="1657" y="707" width="90" height="30" as="geometry" />
        </mxCell>
        <mxCell id="a-cO9aG_Ena2G8kNyRwP-158" value="" style="shape=partialRectangle;top=0;left=0;bottom=0;fillColor=none;stokeWidth=1;dashed=1;align=left;verticalAlign=middle;spacingLeft=4;spacingRight=4;overflow=hidden;rotatable=0;points=[];portConstraint=eastwest;part=1;rounded=1;shadow=0;labelBackgroundColor=none;strokeColor=#82b366;fontFamily=Helvetica;fontSize=12;fontColor=default;startSize=30;" vertex="1" connectable="0" parent="a-cO9aG_Ena2G8kNyRwP-157">
          <mxGeometry width="30" height="30" as="geometry" />
        </mxCell>
        <mxCell id="a-cO9aG_Ena2G8kNyRwP-159" value="NVARCHAR(50)" style="shape=partialRectangle;fillColor=none;align=left;verticalAlign=middle;strokeColor=none;spacingLeft=34;rotatable=1;points=[[0,0.5],[1,0.5]];portConstraint=eastwest;dropTarget=0;rounded=1;shadow=0;labelBackgroundColor=none;fontFamily=Helvetica;fontSize=12;fontColor=default;startSize=30;movable=1;resizable=1;deletable=1;editable=1;locked=0;connectable=1;" vertex="1" parent="1">
          <mxGeometry x="1657" y="736" width="90" height="30" as="geometry" />
        </mxCell>
        <mxCell id="a-cO9aG_Ena2G8kNyRwP-160" value="" style="shape=partialRectangle;top=0;left=0;bottom=0;fillColor=none;stokeWidth=1;dashed=1;align=left;verticalAlign=middle;spacingLeft=4;spacingRight=4;overflow=hidden;rotatable=0;points=[];portConstraint=eastwest;part=1;rounded=1;shadow=0;labelBackgroundColor=none;strokeColor=#82b366;fontFamily=Helvetica;fontSize=12;fontColor=default;startSize=30;" vertex="1" connectable="0" parent="a-cO9aG_Ena2G8kNyRwP-159">
          <mxGeometry width="30" height="30" as="geometry" />
        </mxCell>
        <mxCell id="a-cO9aG_Ena2G8kNyRwP-161" value="NVARCHAR(50)" style="shape=partialRectangle;fillColor=none;align=left;verticalAlign=middle;strokeColor=none;spacingLeft=34;rotatable=1;points=[[0,0.5],[1,0.5]];portConstraint=eastwest;dropTarget=0;rounded=1;shadow=0;labelBackgroundColor=none;fontFamily=Helvetica;fontSize=12;fontColor=default;startSize=30;movable=1;resizable=1;deletable=1;editable=1;locked=0;connectable=1;" vertex="1" parent="1">
          <mxGeometry x="1657" y="678" width="90" height="30" as="geometry" />
        </mxCell>
        <mxCell id="a-cO9aG_Ena2G8kNyRwP-162" value="" style="shape=partialRectangle;top=0;left=0;bottom=0;fillColor=none;stokeWidth=1;dashed=1;align=left;verticalAlign=middle;spacingLeft=4;spacingRight=4;overflow=hidden;rotatable=0;points=[];portConstraint=eastwest;part=1;rounded=1;shadow=0;labelBackgroundColor=none;strokeColor=#82b366;fontFamily=Helvetica;fontSize=12;fontColor=default;startSize=30;" vertex="1" connectable="0" parent="a-cO9aG_Ena2G8kNyRwP-161">
          <mxGeometry width="30" height="30" as="geometry" />
        </mxCell>
        <mxCell id="a-cO9aG_Ena2G8kNyRwP-163" value="NVARCHAR(50)" style="shape=partialRectangle;fillColor=none;align=left;verticalAlign=middle;strokeColor=none;spacingLeft=34;rotatable=1;points=[[0,0.5],[1,0.5]];portConstraint=eastwest;dropTarget=0;rounded=1;shadow=0;labelBackgroundColor=none;fontFamily=Helvetica;fontSize=12;fontColor=default;startSize=30;movable=1;resizable=1;deletable=1;editable=1;locked=0;connectable=1;" vertex="1" parent="1">
          <mxGeometry x="1657" y="766" width="90" height="30" as="geometry" />
        </mxCell>
        <mxCell id="a-cO9aG_Ena2G8kNyRwP-164" value="" style="shape=partialRectangle;top=0;left=0;bottom=0;fillColor=none;stokeWidth=1;dashed=1;align=left;verticalAlign=middle;spacingLeft=4;spacingRight=4;overflow=hidden;rotatable=0;points=[];portConstraint=eastwest;part=1;rounded=1;shadow=0;labelBackgroundColor=none;strokeColor=#82b366;fontFamily=Helvetica;fontSize=12;fontColor=default;startSize=30;" vertex="1" connectable="0" parent="a-cO9aG_Ena2G8kNyRwP-163">
          <mxGeometry width="30" height="30" as="geometry" />
        </mxCell>
        <mxCell id="a-cO9aG_Ena2G8kNyRwP-165" value="NVARCHAR(50)" style="shape=partialRectangle;fillColor=none;align=left;verticalAlign=middle;strokeColor=none;spacingLeft=34;rotatable=1;points=[[0,0.5],[1,0.5]];portConstraint=eastwest;dropTarget=0;rounded=1;shadow=0;labelBackgroundColor=none;fontFamily=Helvetica;fontSize=12;fontColor=default;startSize=30;movable=1;resizable=1;deletable=1;editable=1;locked=0;connectable=1;" vertex="1" parent="1">
          <mxGeometry x="1657" y="796" width="90" height="30" as="geometry" />
        </mxCell>
        <mxCell id="a-cO9aG_Ena2G8kNyRwP-166" value="" style="shape=partialRectangle;top=0;left=0;bottom=0;fillColor=none;stokeWidth=1;dashed=1;align=left;verticalAlign=middle;spacingLeft=4;spacingRight=4;overflow=hidden;rotatable=0;points=[];portConstraint=eastwest;part=1;rounded=1;shadow=0;labelBackgroundColor=none;strokeColor=#82b366;fontFamily=Helvetica;fontSize=12;fontColor=default;startSize=30;" vertex="1" connectable="0" parent="a-cO9aG_Ena2G8kNyRwP-165">
          <mxGeometry width="30" height="30" as="geometry" />
        </mxCell>
        <mxCell id="a-cO9aG_Ena2G8kNyRwP-167" value="NVARCHAR(50)" style="shape=partialRectangle;fillColor=none;align=left;verticalAlign=middle;strokeColor=none;spacingLeft=34;rotatable=1;points=[[0,0.5],[1,0.5]];portConstraint=eastwest;dropTarget=0;rounded=1;shadow=0;labelBackgroundColor=none;fontFamily=Helvetica;fontSize=12;fontColor=default;startSize=30;movable=1;resizable=1;deletable=1;editable=1;locked=0;connectable=1;" vertex="1" parent="1">
          <mxGeometry x="1657" y="826" width="90" height="30" as="geometry" />
        </mxCell>
        <mxCell id="a-cO9aG_Ena2G8kNyRwP-168" value="" style="shape=partialRectangle;top=0;left=0;bottom=0;fillColor=none;stokeWidth=1;dashed=1;align=left;verticalAlign=middle;spacingLeft=4;spacingRight=4;overflow=hidden;rotatable=0;points=[];portConstraint=eastwest;part=1;rounded=1;shadow=0;labelBackgroundColor=none;strokeColor=#82b366;fontFamily=Helvetica;fontSize=12;fontColor=default;startSize=30;" vertex="1" connectable="0" parent="a-cO9aG_Ena2G8kNyRwP-167">
          <mxGeometry width="30" height="30" as="geometry" />
        </mxCell>
        <mxCell id="a-cO9aG_Ena2G8kNyRwP-218" value="PRODUCTION BATCH" style="shape=table;startSize=30;container=1;collapsible=1;childLayout=tableLayout;fixedRows=1;rowLines=0;fontStyle=1;align=center;resizeLast=1;fillColor=#d5e8d4;strokeColor=#82b366;gradientColor=#97d077;labelBackgroundColor=none;rounded=1;swimlaneLine=0;shadow=0;" vertex="1" parent="1">
          <mxGeometry x="1065" y="1193" width="266" height="240" as="geometry" />
        </mxCell>
        <mxCell id="a-cO9aG_Ena2G8kNyRwP-219" value="" style="shape=tableRow;horizontal=0;startSize=0;swimlaneHead=0;swimlaneBody=0;fillColor=none;collapsible=0;dropTarget=0;points=[[0,0.5],[1,0.5]];portConstraint=eastwest;top=0;left=0;right=0;bottom=1;" vertex="1" parent="a-cO9aG_Ena2G8kNyRwP-218">
          <mxGeometry y="30" width="266" height="30" as="geometry" />
        </mxCell>
        <mxCell id="a-cO9aG_Ena2G8kNyRwP-220" value="PK" style="shape=partialRectangle;connectable=0;fillColor=none;top=0;left=0;bottom=0;right=0;fontStyle=1;overflow=hidden;" vertex="1" parent="a-cO9aG_Ena2G8kNyRwP-219">
          <mxGeometry width="30" height="30" as="geometry">
            <mxRectangle width="30" height="30" as="alternateBounds" />
          </mxGeometry>
        </mxCell>
        <mxCell id="a-cO9aG_Ena2G8kNyRwP-221" value="Batch_ID" style="shape=partialRectangle;connectable=0;fillColor=none;top=0;left=0;bottom=0;right=0;align=left;spacingLeft=6;fontStyle=5;overflow=hidden;" vertex="1" parent="a-cO9aG_Ena2G8kNyRwP-219">
          <mxGeometry x="30" width="236" height="30" as="geometry">
            <mxRectangle width="236" height="30" as="alternateBounds" />
          </mxGeometry>
        </mxCell>
        <mxCell id="a-cO9aG_Ena2G8kNyRwP-222" value="" style="shape=tableRow;horizontal=0;startSize=0;swimlaneHead=0;swimlaneBody=0;fillColor=none;collapsible=0;dropTarget=0;points=[[0,0.5],[1,0.5]];portConstraint=eastwest;top=0;left=0;right=0;bottom=0;" vertex="1" parent="a-cO9aG_Ena2G8kNyRwP-218">
          <mxGeometry y="60" width="266" height="30" as="geometry" />
        </mxCell>
        <mxCell id="a-cO9aG_Ena2G8kNyRwP-223" value="FK" style="shape=partialRectangle;connectable=0;fillColor=none;top=0;left=0;bottom=0;right=0;editable=1;overflow=hidden;" vertex="1" parent="a-cO9aG_Ena2G8kNyRwP-222">
          <mxGeometry width="30" height="30" as="geometry">
            <mxRectangle width="30" height="30" as="alternateBounds" />
          </mxGeometry>
        </mxCell>
        <mxCell id="a-cO9aG_Ena2G8kNyRwP-224" value="Product_ID" style="shape=partialRectangle;connectable=0;fillColor=none;top=0;left=0;bottom=0;right=0;align=left;spacingLeft=6;overflow=hidden;" vertex="1" parent="a-cO9aG_Ena2G8kNyRwP-222">
          <mxGeometry x="30" width="236" height="30" as="geometry">
            <mxRectangle width="236" height="30" as="alternateBounds" />
          </mxGeometry>
        </mxCell>
        <mxCell id="a-cO9aG_Ena2G8kNyRwP-225" value="" style="shape=tableRow;horizontal=0;startSize=0;swimlaneHead=0;swimlaneBody=0;fillColor=none;collapsible=0;dropTarget=0;points=[[0,0.5],[1,0.5]];portConstraint=eastwest;top=0;left=0;right=0;bottom=0;" vertex="1" parent="a-cO9aG_Ena2G8kNyRwP-218">
          <mxGeometry y="90" width="266" height="30" as="geometry" />
        </mxCell>
        <mxCell id="a-cO9aG_Ena2G8kNyRwP-226" value="" style="shape=partialRectangle;connectable=0;fillColor=none;top=0;left=0;bottom=0;right=0;editable=1;overflow=hidden;" vertex="1" parent="a-cO9aG_Ena2G8kNyRwP-225">
          <mxGeometry width="30" height="30" as="geometry">
            <mxRectangle width="30" height="30" as="alternateBounds" />
          </mxGeometry>
        </mxCell>
        <mxCell id="a-cO9aG_Ena2G8kNyRwP-227" value="Date" style="shape=partialRectangle;connectable=0;fillColor=none;top=0;left=0;bottom=0;right=0;align=left;spacingLeft=6;overflow=hidden;" vertex="1" parent="a-cO9aG_Ena2G8kNyRwP-225">
          <mxGeometry x="30" width="236" height="30" as="geometry">
            <mxRectangle width="236" height="30" as="alternateBounds" />
          </mxGeometry>
        </mxCell>
        <mxCell id="a-cO9aG_Ena2G8kNyRwP-228" value="" style="shape=tableRow;horizontal=0;startSize=0;swimlaneHead=0;swimlaneBody=0;fillColor=none;collapsible=0;dropTarget=0;points=[[0,0.5],[1,0.5]];portConstraint=eastwest;top=0;left=0;right=0;bottom=0;" vertex="1" parent="a-cO9aG_Ena2G8kNyRwP-218">
          <mxGeometry y="120" width="266" height="30" as="geometry" />
        </mxCell>
        <mxCell id="a-cO9aG_Ena2G8kNyRwP-229" value="" style="shape=partialRectangle;connectable=0;fillColor=none;top=0;left=0;bottom=0;right=0;editable=1;overflow=hidden;" vertex="1" parent="a-cO9aG_Ena2G8kNyRwP-228">
          <mxGeometry width="30" height="30" as="geometry">
            <mxRectangle width="30" height="30" as="alternateBounds" />
          </mxGeometry>
        </mxCell>
        <mxCell id="a-cO9aG_Ena2G8kNyRwP-230" value="Start_Time" style="shape=partialRectangle;connectable=0;fillColor=none;top=0;left=0;bottom=0;right=0;align=left;spacingLeft=6;overflow=hidden;" vertex="1" parent="a-cO9aG_Ena2G8kNyRwP-228">
          <mxGeometry x="30" width="236" height="30" as="geometry">
            <mxRectangle width="236" height="30" as="alternateBounds" />
          </mxGeometry>
        </mxCell>
        <mxCell id="a-cO9aG_Ena2G8kNyRwP-231" value="" style="shape=tableRow;horizontal=0;startSize=0;swimlaneHead=0;swimlaneBody=0;fillColor=none;collapsible=0;dropTarget=0;points=[[0,0.5],[1,0.5]];portConstraint=eastwest;top=0;left=0;right=0;bottom=0;" vertex="1" parent="a-cO9aG_Ena2G8kNyRwP-218">
          <mxGeometry y="150" width="266" height="30" as="geometry" />
        </mxCell>
        <mxCell id="a-cO9aG_Ena2G8kNyRwP-232" value="" style="shape=partialRectangle;connectable=0;fillColor=none;top=0;left=0;bottom=0;right=0;editable=1;overflow=hidden;" vertex="1" parent="a-cO9aG_Ena2G8kNyRwP-231">
          <mxGeometry width="30" height="30" as="geometry">
            <mxRectangle width="30" height="30" as="alternateBounds" />
          </mxGeometry>
        </mxCell>
        <mxCell id="a-cO9aG_Ena2G8kNyRwP-233" value="Finish_Time" style="shape=partialRectangle;connectable=0;fillColor=none;top=0;left=0;bottom=0;right=0;align=left;spacingLeft=6;overflow=hidden;" vertex="1" parent="a-cO9aG_Ena2G8kNyRwP-231">
          <mxGeometry x="30" width="236" height="30" as="geometry">
            <mxRectangle width="236" height="30" as="alternateBounds" />
          </mxGeometry>
        </mxCell>
        <mxCell id="a-cO9aG_Ena2G8kNyRwP-234" value="" style="shape=tableRow;horizontal=0;startSize=0;swimlaneHead=0;swimlaneBody=0;fillColor=none;collapsible=0;dropTarget=0;points=[[0,0.5],[1,0.5]];portConstraint=eastwest;top=0;left=0;right=0;bottom=0;" vertex="1" parent="a-cO9aG_Ena2G8kNyRwP-218">
          <mxGeometry y="180" width="266" height="30" as="geometry" />
        </mxCell>
        <mxCell id="a-cO9aG_Ena2G8kNyRwP-235" value="" style="shape=partialRectangle;connectable=0;fillColor=none;top=0;left=0;bottom=0;right=0;editable=1;overflow=hidden;" vertex="1" parent="a-cO9aG_Ena2G8kNyRwP-234">
          <mxGeometry width="30" height="30" as="geometry">
            <mxRectangle width="30" height="30" as="alternateBounds" />
          </mxGeometry>
        </mxCell>
        <mxCell id="a-cO9aG_Ena2G8kNyRwP-236" value="Quantity" style="shape=partialRectangle;connectable=0;fillColor=none;top=0;left=0;bottom=0;right=0;align=left;spacingLeft=6;overflow=hidden;" vertex="1" parent="a-cO9aG_Ena2G8kNyRwP-234">
          <mxGeometry x="30" width="236" height="30" as="geometry">
            <mxRectangle width="236" height="30" as="alternateBounds" />
          </mxGeometry>
        </mxCell>
        <mxCell id="a-cO9aG_Ena2G8kNyRwP-237" value="" style="shape=tableRow;horizontal=0;startSize=0;swimlaneHead=0;swimlaneBody=0;fillColor=none;collapsible=0;dropTarget=0;points=[[0,0.5],[1,0.5]];portConstraint=eastwest;top=0;left=0;right=0;bottom=0;" vertex="1" parent="a-cO9aG_Ena2G8kNyRwP-218">
          <mxGeometry y="210" width="266" height="30" as="geometry" />
        </mxCell>
        <mxCell id="a-cO9aG_Ena2G8kNyRwP-238" value="FK" style="shape=partialRectangle;connectable=0;fillColor=none;top=0;left=0;bottom=0;right=0;editable=1;overflow=hidden;" vertex="1" parent="a-cO9aG_Ena2G8kNyRwP-237">
          <mxGeometry width="30" height="30" as="geometry">
            <mxRectangle width="30" height="30" as="alternateBounds" />
          </mxGeometry>
        </mxCell>
        <mxCell id="a-cO9aG_Ena2G8kNyRwP-239" value="GR_ID" style="shape=partialRectangle;connectable=0;fillColor=none;top=0;left=0;bottom=0;right=0;align=left;spacingLeft=6;overflow=hidden;" vertex="1" parent="a-cO9aG_Ena2G8kNyRwP-237">
          <mxGeometry x="30" width="236" height="30" as="geometry">
            <mxRectangle width="236" height="30" as="alternateBounds" />
          </mxGeometry>
        </mxCell>
        <mxCell id="a-cO9aG_Ena2G8kNyRwP-255" value="NVARCHAR(50)" style="shape=partialRectangle;fillColor=none;align=left;verticalAlign=middle;strokeColor=none;spacingLeft=34;rotatable=1;points=[[0,0.5],[1,0.5]];portConstraint=eastwest;dropTarget=0;rounded=1;shadow=0;labelBackgroundColor=none;fontFamily=Helvetica;fontSize=12;fontColor=default;startSize=30;movable=1;resizable=1;deletable=1;editable=1;locked=0;connectable=1;" vertex="1" parent="1">
          <mxGeometry x="1189" y="1254" width="90" height="30" as="geometry" />
        </mxCell>
        <mxCell id="a-cO9aG_Ena2G8kNyRwP-256" value="" style="shape=partialRectangle;top=0;left=0;bottom=0;fillColor=none;stokeWidth=1;dashed=1;align=left;verticalAlign=middle;spacingLeft=4;spacingRight=4;overflow=hidden;rotatable=0;points=[];portConstraint=eastwest;part=1;rounded=1;shadow=0;labelBackgroundColor=none;strokeColor=#82b366;fontFamily=Helvetica;fontSize=12;fontColor=default;startSize=30;" vertex="1" connectable="0" parent="a-cO9aG_Ena2G8kNyRwP-255">
          <mxGeometry width="30" height="30" as="geometry" />
        </mxCell>
        <mxCell id="a-cO9aG_Ena2G8kNyRwP-257" value="DATE" style="shape=partialRectangle;fillColor=none;align=left;verticalAlign=middle;strokeColor=none;spacingLeft=34;rotatable=1;points=[[0,0.5],[1,0.5]];portConstraint=eastwest;dropTarget=0;rounded=1;shadow=0;labelBackgroundColor=none;fontFamily=Helvetica;fontSize=12;fontColor=default;startSize=30;movable=1;resizable=1;deletable=1;editable=1;locked=0;connectable=1;" vertex="1" parent="1">
          <mxGeometry x="1189" y="1283" width="90" height="30" as="geometry" />
        </mxCell>
        <mxCell id="a-cO9aG_Ena2G8kNyRwP-258" value="" style="shape=partialRectangle;top=0;left=0;bottom=0;fillColor=none;stokeWidth=1;dashed=1;align=left;verticalAlign=middle;spacingLeft=4;spacingRight=4;overflow=hidden;rotatable=0;points=[];portConstraint=eastwest;part=1;rounded=1;shadow=0;labelBackgroundColor=none;strokeColor=#82b366;fontFamily=Helvetica;fontSize=12;fontColor=default;startSize=30;" vertex="1" connectable="0" parent="a-cO9aG_Ena2G8kNyRwP-257">
          <mxGeometry width="30" height="30" as="geometry" />
        </mxCell>
        <mxCell id="a-cO9aG_Ena2G8kNyRwP-259" value="NVARCHAR(50)" style="shape=partialRectangle;fillColor=none;align=left;verticalAlign=middle;strokeColor=none;spacingLeft=34;rotatable=1;points=[[0,0.5],[1,0.5]];portConstraint=eastwest;dropTarget=0;rounded=1;shadow=0;labelBackgroundColor=none;fontFamily=Helvetica;fontSize=12;fontColor=default;startSize=30;movable=1;resizable=1;deletable=1;editable=1;locked=0;connectable=1;" vertex="1" parent="1">
          <mxGeometry x="1189" y="1225" width="90" height="30" as="geometry" />
        </mxCell>
        <mxCell id="a-cO9aG_Ena2G8kNyRwP-260" value="" style="shape=partialRectangle;top=0;left=0;bottom=0;fillColor=none;stokeWidth=1;dashed=1;align=left;verticalAlign=middle;spacingLeft=4;spacingRight=4;overflow=hidden;rotatable=0;points=[];portConstraint=eastwest;part=1;rounded=1;shadow=0;labelBackgroundColor=none;strokeColor=#82b366;fontFamily=Helvetica;fontSize=12;fontColor=default;startSize=30;" vertex="1" connectable="0" parent="a-cO9aG_Ena2G8kNyRwP-259">
          <mxGeometry width="30" height="30" as="geometry" />
        </mxCell>
        <mxCell id="a-cO9aG_Ena2G8kNyRwP-261" value="TIME" style="shape=partialRectangle;fillColor=none;align=left;verticalAlign=middle;strokeColor=none;spacingLeft=34;rotatable=1;points=[[0,0.5],[1,0.5]];portConstraint=eastwest;dropTarget=0;rounded=1;shadow=0;labelBackgroundColor=none;fontFamily=Helvetica;fontSize=12;fontColor=default;startSize=30;movable=1;resizable=1;deletable=1;editable=1;locked=0;connectable=1;" vertex="1" parent="1">
          <mxGeometry x="1189" y="1313" width="90" height="30" as="geometry" />
        </mxCell>
        <mxCell id="a-cO9aG_Ena2G8kNyRwP-262" value="" style="shape=partialRectangle;top=0;left=0;bottom=0;fillColor=none;stokeWidth=1;dashed=1;align=left;verticalAlign=middle;spacingLeft=4;spacingRight=4;overflow=hidden;rotatable=0;points=[];portConstraint=eastwest;part=1;rounded=1;shadow=0;labelBackgroundColor=none;strokeColor=#82b366;fontFamily=Helvetica;fontSize=12;fontColor=default;startSize=30;" vertex="1" connectable="0" parent="a-cO9aG_Ena2G8kNyRwP-261">
          <mxGeometry width="30" height="30" as="geometry" />
        </mxCell>
        <mxCell id="a-cO9aG_Ena2G8kNyRwP-263" value="TIME" style="shape=partialRectangle;fillColor=none;align=left;verticalAlign=middle;strokeColor=none;spacingLeft=34;rotatable=1;points=[[0,0.5],[1,0.5]];portConstraint=eastwest;dropTarget=0;rounded=1;shadow=0;labelBackgroundColor=none;fontFamily=Helvetica;fontSize=12;fontColor=default;startSize=30;movable=1;resizable=1;deletable=1;editable=1;locked=0;connectable=1;" vertex="1" parent="1">
          <mxGeometry x="1189" y="1343" width="90" height="30" as="geometry" />
        </mxCell>
        <mxCell id="a-cO9aG_Ena2G8kNyRwP-264" value="" style="shape=partialRectangle;top=0;left=0;bottom=0;fillColor=none;stokeWidth=1;dashed=1;align=left;verticalAlign=middle;spacingLeft=4;spacingRight=4;overflow=hidden;rotatable=0;points=[];portConstraint=eastwest;part=1;rounded=1;shadow=0;labelBackgroundColor=none;strokeColor=#82b366;fontFamily=Helvetica;fontSize=12;fontColor=default;startSize=30;" vertex="1" connectable="0" parent="a-cO9aG_Ena2G8kNyRwP-263">
          <mxGeometry width="30" height="30" as="geometry" />
        </mxCell>
        <mxCell id="a-cO9aG_Ena2G8kNyRwP-265" value="INT" style="shape=partialRectangle;fillColor=none;align=left;verticalAlign=middle;strokeColor=none;spacingLeft=34;rotatable=1;points=[[0,0.5],[1,0.5]];portConstraint=eastwest;dropTarget=0;rounded=1;shadow=0;labelBackgroundColor=none;fontFamily=Helvetica;fontSize=12;fontColor=default;startSize=30;movable=1;resizable=1;deletable=1;editable=1;locked=0;connectable=1;" vertex="1" parent="1">
          <mxGeometry x="1189" y="1373" width="90" height="30" as="geometry" />
        </mxCell>
        <mxCell id="a-cO9aG_Ena2G8kNyRwP-266" value="" style="shape=partialRectangle;top=0;left=0;bottom=0;fillColor=none;stokeWidth=1;dashed=1;align=left;verticalAlign=middle;spacingLeft=4;spacingRight=4;overflow=hidden;rotatable=0;points=[];portConstraint=eastwest;part=1;rounded=1;shadow=0;labelBackgroundColor=none;strokeColor=#82b366;fontFamily=Helvetica;fontSize=12;fontColor=default;startSize=30;" vertex="1" connectable="0" parent="a-cO9aG_Ena2G8kNyRwP-265">
          <mxGeometry width="30" height="30" as="geometry" />
        </mxCell>
        <mxCell id="a-cO9aG_Ena2G8kNyRwP-267" value="NVARCHAR" style="shape=partialRectangle;fillColor=none;align=left;verticalAlign=middle;strokeColor=none;spacingLeft=34;rotatable=1;points=[[0,0.5],[1,0.5]];portConstraint=eastwest;dropTarget=0;rounded=1;shadow=0;labelBackgroundColor=none;fontFamily=Helvetica;fontSize=12;fontColor=default;startSize=30;movable=1;resizable=1;deletable=1;editable=1;locked=0;connectable=1;" vertex="1" parent="1">
          <mxGeometry x="1189" y="1401" width="90" height="30" as="geometry" />
        </mxCell>
        <mxCell id="a-cO9aG_Ena2G8kNyRwP-268" value="" style="shape=partialRectangle;top=0;left=0;bottom=0;fillColor=none;stokeWidth=1;dashed=1;align=left;verticalAlign=middle;spacingLeft=4;spacingRight=4;overflow=hidden;rotatable=0;points=[];portConstraint=eastwest;part=1;rounded=1;shadow=0;labelBackgroundColor=none;strokeColor=#82b366;fontFamily=Helvetica;fontSize=12;fontColor=default;startSize=30;" vertex="1" connectable="0" parent="a-cO9aG_Ena2G8kNyRwP-267">
          <mxGeometry width="30" height="30" as="geometry" />
        </mxCell>
        <mxCell id="a-cO9aG_Ena2G8kNyRwP-316" value="SERIES OF PRODUCT" style="shape=table;startSize=30;container=1;collapsible=1;childLayout=tableLayout;fixedRows=1;rowLines=0;fontStyle=1;align=center;resizeLast=1;fillColor=#d5e8d4;strokeColor=#82b366;gradientColor=#97d077;labelBackgroundColor=none;rounded=1;swimlaneLine=0;shadow=0;" vertex="1" parent="1">
          <mxGeometry x="597" y="1191" width="266" height="90" as="geometry" />
        </mxCell>
        <mxCell id="a-cO9aG_Ena2G8kNyRwP-317" value="" style="shape=tableRow;horizontal=0;startSize=0;swimlaneHead=0;swimlaneBody=0;fillColor=none;collapsible=0;dropTarget=0;points=[[0,0.5],[1,0.5]];portConstraint=eastwest;top=0;left=0;right=0;bottom=1;" vertex="1" parent="a-cO9aG_Ena2G8kNyRwP-316">
          <mxGeometry y="30" width="266" height="30" as="geometry" />
        </mxCell>
        <mxCell id="a-cO9aG_Ena2G8kNyRwP-318" value="PK" style="shape=partialRectangle;connectable=0;fillColor=none;top=0;left=0;bottom=0;right=0;fontStyle=1;overflow=hidden;" vertex="1" parent="a-cO9aG_Ena2G8kNyRwP-317">
          <mxGeometry width="30" height="30" as="geometry">
            <mxRectangle width="30" height="30" as="alternateBounds" />
          </mxGeometry>
        </mxCell>
        <mxCell id="a-cO9aG_Ena2G8kNyRwP-319" value="Series_number" style="shape=partialRectangle;connectable=0;fillColor=none;top=0;left=0;bottom=0;right=0;align=left;spacingLeft=6;fontStyle=5;overflow=hidden;" vertex="1" parent="a-cO9aG_Ena2G8kNyRwP-317">
          <mxGeometry x="30" width="236" height="30" as="geometry">
            <mxRectangle width="236" height="30" as="alternateBounds" />
          </mxGeometry>
        </mxCell>
        <mxCell id="a-cO9aG_Ena2G8kNyRwP-320" value="" style="shape=tableRow;horizontal=0;startSize=0;swimlaneHead=0;swimlaneBody=0;fillColor=none;collapsible=0;dropTarget=0;points=[[0,0.5],[1,0.5]];portConstraint=eastwest;top=0;left=0;right=0;bottom=0;" vertex="1" parent="a-cO9aG_Ena2G8kNyRwP-316">
          <mxGeometry y="60" width="266" height="30" as="geometry" />
        </mxCell>
        <mxCell id="a-cO9aG_Ena2G8kNyRwP-321" value="FK" style="shape=partialRectangle;connectable=0;fillColor=none;top=0;left=0;bottom=0;right=0;editable=1;overflow=hidden;" vertex="1" parent="a-cO9aG_Ena2G8kNyRwP-320">
          <mxGeometry width="30" height="30" as="geometry">
            <mxRectangle width="30" height="30" as="alternateBounds" />
          </mxGeometry>
        </mxCell>
        <mxCell id="a-cO9aG_Ena2G8kNyRwP-322" value="Batch_ID" style="shape=partialRectangle;connectable=0;fillColor=none;top=0;left=0;bottom=0;right=0;align=left;spacingLeft=6;overflow=hidden;" vertex="1" parent="a-cO9aG_Ena2G8kNyRwP-320">
          <mxGeometry x="30" width="236" height="30" as="geometry">
            <mxRectangle width="236" height="30" as="alternateBounds" />
          </mxGeometry>
        </mxCell>
        <mxCell id="a-cO9aG_Ena2G8kNyRwP-353" value="NVARCHAR(50)" style="shape=partialRectangle;fillColor=none;align=left;verticalAlign=middle;strokeColor=none;spacingLeft=34;rotatable=1;points=[[0,0.5],[1,0.5]];portConstraint=eastwest;dropTarget=0;rounded=1;shadow=0;labelBackgroundColor=none;fontFamily=Helvetica;fontSize=12;fontColor=default;startSize=30;movable=1;resizable=1;deletable=1;editable=1;locked=0;connectable=1;" vertex="1" parent="1">
          <mxGeometry x="721" y="1252" width="90" height="30" as="geometry" />
        </mxCell>
        <mxCell id="a-cO9aG_Ena2G8kNyRwP-354" value="" style="shape=partialRectangle;top=0;left=0;bottom=0;fillColor=none;stokeWidth=1;dashed=1;align=left;verticalAlign=middle;spacingLeft=4;spacingRight=4;overflow=hidden;rotatable=0;points=[];portConstraint=eastwest;part=1;rounded=1;shadow=0;labelBackgroundColor=none;strokeColor=#82b366;fontFamily=Helvetica;fontSize=12;fontColor=default;startSize=30;" vertex="1" connectable="0" parent="a-cO9aG_Ena2G8kNyRwP-353">
          <mxGeometry width="30" height="30" as="geometry" />
        </mxCell>
        <mxCell id="a-cO9aG_Ena2G8kNyRwP-357" value="NVARCHAR(50)" style="shape=partialRectangle;fillColor=none;align=left;verticalAlign=middle;strokeColor=none;spacingLeft=34;rotatable=1;points=[[0,0.5],[1,0.5]];portConstraint=eastwest;dropTarget=0;rounded=1;shadow=0;labelBackgroundColor=none;fontFamily=Helvetica;fontSize=12;fontColor=default;startSize=30;movable=1;resizable=1;deletable=1;editable=1;locked=0;connectable=1;" vertex="1" parent="1">
          <mxGeometry x="721" y="1223" width="90" height="30" as="geometry" />
        </mxCell>
        <mxCell id="a-cO9aG_Ena2G8kNyRwP-358" value="" style="shape=partialRectangle;top=0;left=0;bottom=0;fillColor=none;stokeWidth=1;dashed=1;align=left;verticalAlign=middle;spacingLeft=4;spacingRight=4;overflow=hidden;rotatable=0;points=[];portConstraint=eastwest;part=1;rounded=1;shadow=0;labelBackgroundColor=none;strokeColor=#82b366;fontFamily=Helvetica;fontSize=12;fontColor=default;startSize=30;" vertex="1" connectable="0" parent="a-cO9aG_Ena2G8kNyRwP-357">
          <mxGeometry width="30" height="30" as="geometry" />
        </mxCell>
        <mxCell id="a-cO9aG_Ena2G8kNyRwP-376" value="" style="edgeStyle=entityRelationEdgeStyle;fontSize=12;html=1;endArrow=ERoneToMany;startArrow=ERmandOne;rounded=0;fontFamily=Helvetica;fontColor=default;startSize=30;exitX=0;exitY=0.5;exitDx=0;exitDy=0;entryX=1;entryY=0.5;entryDx=0;entryDy=0;" edge="1" parent="1" source="a-cO9aG_Ena2G8kNyRwP-219" target="a-cO9aG_Ena2G8kNyRwP-320">
          <mxGeometry width="100" height="100" relative="1" as="geometry">
            <mxPoint x="927" y="1406" as="sourcePoint" />
            <mxPoint x="1027" y="1306" as="targetPoint" />
          </mxGeometry>
        </mxCell>
        <mxCell id="a-cO9aG_Ena2G8kNyRwP-413" value="WATER PRODUCT" style="shape=table;startSize=30;container=1;collapsible=1;childLayout=tableLayout;fixedRows=1;rowLines=0;fontStyle=1;align=center;resizeLast=1;fillColor=#d5e8d4;strokeColor=#82b366;gradientColor=#97d077;labelBackgroundColor=none;rounded=1;swimlaneLine=0;shadow=0;" vertex="1" parent="1">
          <mxGeometry x="1551" y="1194" width="266" height="210" as="geometry" />
        </mxCell>
        <mxCell id="a-cO9aG_Ena2G8kNyRwP-414" value="" style="shape=tableRow;horizontal=0;startSize=0;swimlaneHead=0;swimlaneBody=0;fillColor=none;collapsible=0;dropTarget=0;points=[[0,0.5],[1,0.5]];portConstraint=eastwest;top=0;left=0;right=0;bottom=1;" vertex="1" parent="a-cO9aG_Ena2G8kNyRwP-413">
          <mxGeometry y="30" width="266" height="30" as="geometry" />
        </mxCell>
        <mxCell id="a-cO9aG_Ena2G8kNyRwP-415" value="PK" style="shape=partialRectangle;connectable=0;fillColor=none;top=0;left=0;bottom=0;right=0;fontStyle=1;overflow=hidden;" vertex="1" parent="a-cO9aG_Ena2G8kNyRwP-414">
          <mxGeometry width="30" height="30" as="geometry">
            <mxRectangle width="30" height="30" as="alternateBounds" />
          </mxGeometry>
        </mxCell>
        <mxCell id="a-cO9aG_Ena2G8kNyRwP-416" value="Product_ID" style="shape=partialRectangle;connectable=0;fillColor=none;top=0;left=0;bottom=0;right=0;align=left;spacingLeft=6;fontStyle=5;overflow=hidden;" vertex="1" parent="a-cO9aG_Ena2G8kNyRwP-414">
          <mxGeometry x="30" width="236" height="30" as="geometry">
            <mxRectangle width="236" height="30" as="alternateBounds" />
          </mxGeometry>
        </mxCell>
        <mxCell id="a-cO9aG_Ena2G8kNyRwP-417" value="" style="shape=tableRow;horizontal=0;startSize=0;swimlaneHead=0;swimlaneBody=0;fillColor=none;collapsible=0;dropTarget=0;points=[[0,0.5],[1,0.5]];portConstraint=eastwest;top=0;left=0;right=0;bottom=0;" vertex="1" parent="a-cO9aG_Ena2G8kNyRwP-413">
          <mxGeometry y="60" width="266" height="30" as="geometry" />
        </mxCell>
        <mxCell id="a-cO9aG_Ena2G8kNyRwP-418" value="FK" style="shape=partialRectangle;connectable=0;fillColor=none;top=0;left=0;bottom=0;right=0;editable=1;overflow=hidden;" vertex="1" parent="a-cO9aG_Ena2G8kNyRwP-417">
          <mxGeometry width="30" height="30" as="geometry">
            <mxRectangle width="30" height="30" as="alternateBounds" />
          </mxGeometry>
        </mxCell>
        <mxCell id="a-cO9aG_Ena2G8kNyRwP-419" value="Product_name" style="shape=partialRectangle;connectable=0;fillColor=none;top=0;left=0;bottom=0;right=0;align=left;spacingLeft=6;overflow=hidden;" vertex="1" parent="a-cO9aG_Ena2G8kNyRwP-417">
          <mxGeometry x="30" width="236" height="30" as="geometry">
            <mxRectangle width="236" height="30" as="alternateBounds" />
          </mxGeometry>
        </mxCell>
        <mxCell id="a-cO9aG_Ena2G8kNyRwP-420" value="" style="shape=tableRow;horizontal=0;startSize=0;swimlaneHead=0;swimlaneBody=0;fillColor=none;collapsible=0;dropTarget=0;points=[[0,0.5],[1,0.5]];portConstraint=eastwest;top=0;left=0;right=0;bottom=0;" vertex="1" parent="a-cO9aG_Ena2G8kNyRwP-413">
          <mxGeometry y="90" width="266" height="30" as="geometry" />
        </mxCell>
        <mxCell id="a-cO9aG_Ena2G8kNyRwP-421" value="" style="shape=partialRectangle;connectable=0;fillColor=none;top=0;left=0;bottom=0;right=0;editable=1;overflow=hidden;" vertex="1" parent="a-cO9aG_Ena2G8kNyRwP-420">
          <mxGeometry width="30" height="30" as="geometry">
            <mxRectangle width="30" height="30" as="alternateBounds" />
          </mxGeometry>
        </mxCell>
        <mxCell id="a-cO9aG_Ena2G8kNyRwP-422" value="Usage_category" style="shape=partialRectangle;connectable=0;fillColor=none;top=0;left=0;bottom=0;right=0;align=left;spacingLeft=6;overflow=hidden;" vertex="1" parent="a-cO9aG_Ena2G8kNyRwP-420">
          <mxGeometry x="30" width="236" height="30" as="geometry">
            <mxRectangle width="236" height="30" as="alternateBounds" />
          </mxGeometry>
        </mxCell>
        <mxCell id="a-cO9aG_Ena2G8kNyRwP-423" value="" style="shape=tableRow;horizontal=0;startSize=0;swimlaneHead=0;swimlaneBody=0;fillColor=none;collapsible=0;dropTarget=0;points=[[0,0.5],[1,0.5]];portConstraint=eastwest;top=0;left=0;right=0;bottom=0;" vertex="1" parent="a-cO9aG_Ena2G8kNyRwP-413">
          <mxGeometry y="120" width="266" height="30" as="geometry" />
        </mxCell>
        <mxCell id="a-cO9aG_Ena2G8kNyRwP-424" value="" style="shape=partialRectangle;connectable=0;fillColor=none;top=0;left=0;bottom=0;right=0;editable=1;overflow=hidden;" vertex="1" parent="a-cO9aG_Ena2G8kNyRwP-423">
          <mxGeometry width="30" height="30" as="geometry">
            <mxRectangle width="30" height="30" as="alternateBounds" />
          </mxGeometry>
        </mxCell>
        <mxCell id="a-cO9aG_Ena2G8kNyRwP-425" value="Volume" style="shape=partialRectangle;connectable=0;fillColor=none;top=0;left=0;bottom=0;right=0;align=left;spacingLeft=6;overflow=hidden;" vertex="1" parent="a-cO9aG_Ena2G8kNyRwP-423">
          <mxGeometry x="30" width="236" height="30" as="geometry">
            <mxRectangle width="236" height="30" as="alternateBounds" />
          </mxGeometry>
        </mxCell>
        <mxCell id="a-cO9aG_Ena2G8kNyRwP-426" value="" style="shape=tableRow;horizontal=0;startSize=0;swimlaneHead=0;swimlaneBody=0;fillColor=none;collapsible=0;dropTarget=0;points=[[0,0.5],[1,0.5]];portConstraint=eastwest;top=0;left=0;right=0;bottom=0;" vertex="1" parent="a-cO9aG_Ena2G8kNyRwP-413">
          <mxGeometry y="150" width="266" height="30" as="geometry" />
        </mxCell>
        <mxCell id="a-cO9aG_Ena2G8kNyRwP-427" value="" style="shape=partialRectangle;connectable=0;fillColor=none;top=0;left=0;bottom=0;right=0;editable=1;overflow=hidden;" vertex="1" parent="a-cO9aG_Ena2G8kNyRwP-426">
          <mxGeometry width="30" height="30" as="geometry">
            <mxRectangle width="30" height="30" as="alternateBounds" />
          </mxGeometry>
        </mxCell>
        <mxCell id="a-cO9aG_Ena2G8kNyRwP-428" value="Package_type" style="shape=partialRectangle;connectable=0;fillColor=none;top=0;left=0;bottom=0;right=0;align=left;spacingLeft=6;overflow=hidden;" vertex="1" parent="a-cO9aG_Ena2G8kNyRwP-426">
          <mxGeometry x="30" width="236" height="30" as="geometry">
            <mxRectangle width="236" height="30" as="alternateBounds" />
          </mxGeometry>
        </mxCell>
        <mxCell id="a-cO9aG_Ena2G8kNyRwP-429" value="" style="shape=tableRow;horizontal=0;startSize=0;swimlaneHead=0;swimlaneBody=0;fillColor=none;collapsible=0;dropTarget=0;points=[[0,0.5],[1,0.5]];portConstraint=eastwest;top=0;left=0;right=0;bottom=0;" vertex="1" parent="a-cO9aG_Ena2G8kNyRwP-413">
          <mxGeometry y="180" width="266" height="30" as="geometry" />
        </mxCell>
        <mxCell id="a-cO9aG_Ena2G8kNyRwP-430" value="" style="shape=partialRectangle;connectable=0;fillColor=none;top=0;left=0;bottom=0;right=0;editable=1;overflow=hidden;" vertex="1" parent="a-cO9aG_Ena2G8kNyRwP-429">
          <mxGeometry width="30" height="30" as="geometry">
            <mxRectangle width="30" height="30" as="alternateBounds" />
          </mxGeometry>
        </mxCell>
        <mxCell id="a-cO9aG_Ena2G8kNyRwP-431" value="Specification" style="shape=partialRectangle;connectable=0;fillColor=none;top=0;left=0;bottom=0;right=0;align=left;spacingLeft=6;overflow=hidden;" vertex="1" parent="a-cO9aG_Ena2G8kNyRwP-429">
          <mxGeometry x="30" width="236" height="30" as="geometry">
            <mxRectangle width="236" height="30" as="alternateBounds" />
          </mxGeometry>
        </mxCell>
        <mxCell id="a-cO9aG_Ena2G8kNyRwP-435" value="NVARCHAR(50)" style="shape=partialRectangle;fillColor=none;align=left;verticalAlign=middle;strokeColor=none;spacingLeft=34;rotatable=1;points=[[0,0.5],[1,0.5]];portConstraint=eastwest;dropTarget=0;rounded=1;shadow=0;labelBackgroundColor=none;fontFamily=Helvetica;fontSize=12;fontColor=default;startSize=30;movable=1;resizable=1;deletable=1;editable=1;locked=0;connectable=1;" vertex="1" parent="1">
          <mxGeometry x="1675" y="1255" width="90" height="30" as="geometry" />
        </mxCell>
        <mxCell id="a-cO9aG_Ena2G8kNyRwP-436" value="" style="shape=partialRectangle;top=0;left=0;bottom=0;fillColor=none;stokeWidth=1;dashed=1;align=left;verticalAlign=middle;spacingLeft=4;spacingRight=4;overflow=hidden;rotatable=0;points=[];portConstraint=eastwest;part=1;rounded=1;shadow=0;labelBackgroundColor=none;strokeColor=#82b366;fontFamily=Helvetica;fontSize=12;fontColor=default;startSize=30;" vertex="1" connectable="0" parent="a-cO9aG_Ena2G8kNyRwP-435">
          <mxGeometry width="30" height="30" as="geometry" />
        </mxCell>
        <mxCell id="a-cO9aG_Ena2G8kNyRwP-437" value="NVARCHAR(50)" style="shape=partialRectangle;fillColor=none;align=left;verticalAlign=middle;strokeColor=none;spacingLeft=34;rotatable=1;points=[[0,0.5],[1,0.5]];portConstraint=eastwest;dropTarget=0;rounded=1;shadow=0;labelBackgroundColor=none;fontFamily=Helvetica;fontSize=12;fontColor=default;startSize=30;movable=1;resizable=1;deletable=1;editable=1;locked=0;connectable=1;" vertex="1" parent="1">
          <mxGeometry x="1675" y="1284" width="90" height="30" as="geometry" />
        </mxCell>
        <mxCell id="a-cO9aG_Ena2G8kNyRwP-438" value="" style="shape=partialRectangle;top=0;left=0;bottom=0;fillColor=none;stokeWidth=1;dashed=1;align=left;verticalAlign=middle;spacingLeft=4;spacingRight=4;overflow=hidden;rotatable=0;points=[];portConstraint=eastwest;part=1;rounded=1;shadow=0;labelBackgroundColor=none;strokeColor=#82b366;fontFamily=Helvetica;fontSize=12;fontColor=default;startSize=30;" vertex="1" connectable="0" parent="a-cO9aG_Ena2G8kNyRwP-437">
          <mxGeometry width="30" height="30" as="geometry" />
        </mxCell>
        <mxCell id="a-cO9aG_Ena2G8kNyRwP-439" value="NVARCHAR(50)" style="shape=partialRectangle;fillColor=none;align=left;verticalAlign=middle;strokeColor=none;spacingLeft=34;rotatable=1;points=[[0,0.5],[1,0.5]];portConstraint=eastwest;dropTarget=0;rounded=1;shadow=0;labelBackgroundColor=none;fontFamily=Helvetica;fontSize=12;fontColor=default;startSize=30;movable=1;resizable=1;deletable=1;editable=1;locked=0;connectable=1;" vertex="1" parent="1">
          <mxGeometry x="1675" y="1226" width="90" height="30" as="geometry" />
        </mxCell>
        <mxCell id="a-cO9aG_Ena2G8kNyRwP-440" value="" style="shape=partialRectangle;top=0;left=0;bottom=0;fillColor=none;stokeWidth=1;dashed=1;align=left;verticalAlign=middle;spacingLeft=4;spacingRight=4;overflow=hidden;rotatable=0;points=[];portConstraint=eastwest;part=1;rounded=1;shadow=0;labelBackgroundColor=none;strokeColor=#82b366;fontFamily=Helvetica;fontSize=12;fontColor=default;startSize=30;" vertex="1" connectable="0" parent="a-cO9aG_Ena2G8kNyRwP-439">
          <mxGeometry width="30" height="30" as="geometry" />
        </mxCell>
        <mxCell id="a-cO9aG_Ena2G8kNyRwP-441" value="INT" style="shape=partialRectangle;fillColor=none;align=left;verticalAlign=middle;strokeColor=none;spacingLeft=34;rotatable=1;points=[[0,0.5],[1,0.5]];portConstraint=eastwest;dropTarget=0;rounded=1;shadow=0;labelBackgroundColor=none;fontFamily=Helvetica;fontSize=12;fontColor=default;startSize=30;movable=1;resizable=1;deletable=1;editable=1;locked=0;connectable=1;" vertex="1" parent="1">
          <mxGeometry x="1675" y="1314" width="90" height="30" as="geometry" />
        </mxCell>
        <mxCell id="a-cO9aG_Ena2G8kNyRwP-442" value="" style="shape=partialRectangle;top=0;left=0;bottom=0;fillColor=none;stokeWidth=1;dashed=1;align=left;verticalAlign=middle;spacingLeft=4;spacingRight=4;overflow=hidden;rotatable=0;points=[];portConstraint=eastwest;part=1;rounded=1;shadow=0;labelBackgroundColor=none;strokeColor=#82b366;fontFamily=Helvetica;fontSize=12;fontColor=default;startSize=30;" vertex="1" connectable="0" parent="a-cO9aG_Ena2G8kNyRwP-441">
          <mxGeometry width="30" height="30" as="geometry" />
        </mxCell>
        <mxCell id="a-cO9aG_Ena2G8kNyRwP-443" value="NVARCHAR(50)" style="shape=partialRectangle;fillColor=none;align=left;verticalAlign=middle;strokeColor=none;spacingLeft=34;rotatable=1;points=[[0,0.5],[1,0.5]];portConstraint=eastwest;dropTarget=0;rounded=1;shadow=0;labelBackgroundColor=none;fontFamily=Helvetica;fontSize=12;fontColor=default;startSize=30;movable=1;resizable=1;deletable=1;editable=1;locked=0;connectable=1;" vertex="1" parent="1">
          <mxGeometry x="1675" y="1344" width="90" height="30" as="geometry" />
        </mxCell>
        <mxCell id="a-cO9aG_Ena2G8kNyRwP-444" value="" style="shape=partialRectangle;top=0;left=0;bottom=0;fillColor=none;stokeWidth=1;dashed=1;align=left;verticalAlign=middle;spacingLeft=4;spacingRight=4;overflow=hidden;rotatable=0;points=[];portConstraint=eastwest;part=1;rounded=1;shadow=0;labelBackgroundColor=none;strokeColor=#82b366;fontFamily=Helvetica;fontSize=12;fontColor=default;startSize=30;" vertex="1" connectable="0" parent="a-cO9aG_Ena2G8kNyRwP-443">
          <mxGeometry width="30" height="30" as="geometry" />
        </mxCell>
        <mxCell id="a-cO9aG_Ena2G8kNyRwP-445" value="NVARCHAR(50)" style="shape=partialRectangle;fillColor=none;align=left;verticalAlign=middle;strokeColor=none;spacingLeft=34;rotatable=1;points=[[0,0.5],[1,0.5]];portConstraint=eastwest;dropTarget=0;rounded=1;shadow=0;labelBackgroundColor=none;fontFamily=Helvetica;fontSize=12;fontColor=default;startSize=30;movable=1;resizable=1;deletable=1;editable=1;locked=0;connectable=1;" vertex="1" parent="1">
          <mxGeometry x="1675" y="1374" width="90" height="30" as="geometry" />
        </mxCell>
        <mxCell id="a-cO9aG_Ena2G8kNyRwP-446" value="" style="shape=partialRectangle;top=0;left=0;bottom=0;fillColor=none;stokeWidth=1;dashed=1;align=left;verticalAlign=middle;spacingLeft=4;spacingRight=4;overflow=hidden;rotatable=0;points=[];portConstraint=eastwest;part=1;rounded=1;shadow=0;labelBackgroundColor=none;strokeColor=#82b366;fontFamily=Helvetica;fontSize=12;fontColor=default;startSize=30;" vertex="1" connectable="0" parent="a-cO9aG_Ena2G8kNyRwP-445">
          <mxGeometry width="30" height="30" as="geometry" />
        </mxCell>
      </root>
    </mxGraphModel>
  </diagram>
</mxfile>
